<svg width="200" height="40" viewBox="0 0 200 40" fill="none" xmlns="http://www.w3.org/2000/svg">
<g clip-path="url(#clip0_5_970)">
<path d="M0.862305 22.5266H199.138" stroke="#6DBBD1" stroke-width="2" stroke-linecap="round"/>
<path d="M4.54736 36.5863H6.20518V29.7587H4.54736V36.5863ZM4.3125 27.4401C4.3125 27.9806 4.75459 28.4643 5.36246 28.4643C5.97033 28.4643 6.44005 28.0233 6.44005 27.4401C6.44005 26.8569 5.97033 26.416 5.36246 26.416C4.75459 26.416 4.3125 26.8996 4.3125 27.4401Z" fill="black"/>
<path d="M8.24512 36.5861H9.90243V32.8593C9.90243 31.9489 10.3305 31.1239 11.4216 31.1239C12.5817 31.1239 12.6369 32.3757 12.6369 33.1296V36.5861H14.2942V32.2761C14.2942 30.8822 13.6589 29.5878 11.8773 29.5878C10.7725 29.5878 10.151 30.171 9.84717 30.8537H9.81958V29.7584H8.24512V36.5861Z" fill="black"/>
<path d="M16.3135 36.5861H17.9707V32.8593C17.9707 31.9489 18.3989 31.1239 19.4899 31.1239C20.65 31.1239 20.7053 32.3757 20.7053 33.1296V36.5861H22.3625V32.2761C22.3625 30.8822 21.7273 29.5878 19.9457 29.5878C18.8408 29.5878 18.2193 30.171 17.9155 30.8537H17.8879V29.7584H16.3135V36.5861Z" fill="black"/>
<path d="M24.9756 31.2094V34.3387C24.9756 35.9461 25.39 36.7568 27.1439 36.7568C27.5306 36.7568 28.1107 36.6999 28.456 36.5293V35.0926C28.2488 35.2491 27.8483 35.306 27.5582 35.306C26.8262 35.306 26.633 34.8792 26.633 34.1965V31.2094H28.456V29.7585H26.633V27.7814H24.9756V29.7585H23.6084V31.2094H24.9756Z" fill="black"/>
<path d="M36.2687 33.7696V33.3003C36.2687 30.9248 35.0119 29.5878 33.1613 29.5878C31.1587 29.5878 29.5566 31.0244 29.5566 33.1722C29.5566 35.3201 31.1587 36.7568 33.1613 36.7568C34.2109 36.7568 35.1915 36.3727 35.9648 35.3912L34.7772 34.4666C34.3628 34.9929 33.8242 35.3912 32.9955 35.3912C32.0703 35.3912 31.3245 34.7796 31.214 33.7696H36.2687ZM31.214 32.4895C31.3383 31.508 31.946 30.8679 32.9265 30.8679C33.9623 30.8679 34.5976 31.4938 34.6114 32.4895H31.214Z" fill="black"/>
<path d="M37.9844 36.5862H39.6422V25.8326H37.9844V36.5862Z" fill="black"/>
<path d="M41.71 36.5863H43.3678V25.8328H41.71V36.5863Z" fill="black"/>
<path d="M45.4361 36.5863H47.0939V29.7587H45.4361V36.5863ZM45.2012 27.4401C45.2012 27.9806 45.6433 28.4643 46.2512 28.4643C46.859 28.4643 47.3288 28.0233 47.3288 27.4401C47.3288 26.8569 46.859 26.416 46.2512 26.416C45.6433 26.416 45.2012 26.8996 45.2012 27.4401Z" fill="black"/>
<path d="M54.3813 29.7584V30.7826H54.3537C53.8703 29.9575 53.0002 29.5878 52.0749 29.5878C50.0309 29.5878 48.8018 31.1524 48.8018 33.1722C48.8018 35.1067 50.1137 36.6714 52.1025 36.6714C52.9312 36.6714 53.7874 36.3442 54.2708 35.6757H54.2984V36.1736C54.2984 37.5248 53.8012 38.4637 52.1992 38.4637C51.2739 38.4637 50.5833 38.108 49.9205 37.4822L48.9261 38.8761C49.8652 39.7296 50.9838 39.9999 52.2131 39.9999C54.7956 39.9999 55.9557 38.4352 55.9557 35.9744V29.7584H54.3813ZM52.4202 31.1239C53.6217 31.1239 54.3813 31.9489 54.3813 33.1295C54.3813 34.2675 53.6356 35.1351 52.4063 35.1351C51.2877 35.1351 50.4591 34.2391 50.4591 33.158C50.4591 31.9489 51.26 31.1239 52.4202 31.1239Z" fill="black"/>
<path d="M64.3517 33.7696V33.3003C64.3517 30.9248 63.0949 29.5878 61.2443 29.5878C59.2417 29.5878 57.6396 31.0244 57.6396 33.1722C57.6396 35.3201 59.2417 36.7568 61.2443 36.7568C62.2939 36.7568 63.2745 36.3727 64.0479 35.3912L62.8602 34.4666C62.4458 34.9929 61.9072 35.3912 61.0785 35.3912C60.1532 35.3912 59.4074 34.7796 59.297 33.7696H64.3517ZM59.297 32.4895C59.4213 31.508 60.029 30.8679 61.0095 30.8679C62.0453 30.8679 62.6806 31.4938 62.6944 32.4895H59.297Z" fill="black"/>
<path d="M66.0391 36.5861H67.6963V32.8593C67.6963 31.9489 68.1245 31.1239 69.2155 31.1239C70.3756 31.1239 70.4309 32.3757 70.4309 33.1296V36.5861H72.0881V32.2761C72.0881 30.8822 71.4529 29.5878 69.6712 29.5878C68.5664 29.5878 67.9449 30.171 67.6411 30.8537H67.6135V29.7584H66.0391V36.5861Z" fill="black"/>
<path d="M74.7022 31.2094V34.3387C74.7022 35.9461 75.1165 36.7568 76.8705 36.7568C77.2572 36.7568 77.8372 36.6999 78.1826 36.5293V35.0926C77.9753 35.2491 77.5749 35.306 77.2848 35.306C76.5528 35.306 76.3595 34.8792 76.3595 34.1965V31.2094H78.1826V29.7585H76.3595V27.7814H74.7022V29.7585H73.335V31.2094H74.7022Z" fill="black"/>
<path d="M85.2899 30.6261C84.6546 29.9007 83.7293 29.5878 82.8869 29.5878C80.8843 29.5878 79.2822 31.0244 79.2822 33.1722C79.2822 35.3201 80.8843 36.7568 82.8869 36.7568C83.4669 36.7568 84.5994 36.5008 85.2761 35.8038L84.1713 34.5805C83.8674 34.9929 83.3978 35.2206 82.8869 35.2206C81.6715 35.2206 80.9396 34.2391 80.9396 33.1722C80.9396 32.1055 81.6715 31.1239 82.8869 31.1239C83.3288 31.1239 83.757 31.3943 84.1436 31.8067L85.2899 30.6261Z" fill="black"/>
<path d="M86.415 36.5861H88.0719V32.9304C88.0719 32.5606 88.2935 31.2093 89.8538 31.2093C90.1159 31.2093 90.3788 31.2662 90.6547 31.3373V29.6873C90.4616 29.6304 90.2685 29.5878 90.0607 29.5878C89.1909 29.5878 88.459 30.0571 88.0995 30.8395H88.0719V29.7584H86.415V36.5861Z" fill="black"/>
<path d="M92.0938 36.5861H93.7515V32.8593C93.7515 31.9489 94.1791 31.1239 95.2705 31.1239C96.0713 31.1239 96.4032 31.6787 96.4032 32.5179V36.5861H98.0601V32.8878C98.0601 32.0058 98.4472 31.1239 99.4825 31.1239C100.464 31.1239 100.712 31.8636 100.712 32.7171V36.5861H102.37V32.5179C102.37 30.8822 101.748 29.5878 99.9799 29.5878C98.986 29.5878 98.2817 29.986 97.7981 30.8537C97.4524 30.0002 96.7481 29.5878 95.7265 29.5878C94.6213 29.5878 93.986 30.1852 93.6963 30.8253H93.6687V29.7584H92.0938V36.5861Z" fill="black"/>
<path d="M104.318 35.5907C104.318 36.2024 104.844 36.6718 105.424 36.6718C106.032 36.6718 106.529 36.1739 106.529 35.5623C106.529 34.9506 106.018 34.4812 105.424 34.4812C104.816 34.4812 104.318 34.9791 104.318 35.5907Z" fill="black"/>
<path d="M114.219 30.6261C113.583 29.9007 112.658 29.5878 111.816 29.5878C109.814 29.5878 108.212 31.0244 108.212 33.1722C108.212 35.3201 109.814 36.7568 111.816 36.7568C112.396 36.7568 113.528 36.5008 114.205 35.8038L113.101 34.5805C112.796 34.9929 112.327 35.2206 111.816 35.2206C110.601 35.2206 109.869 34.2391 109.869 33.1722C109.869 32.1055 110.601 31.1239 111.816 31.1239C112.258 31.1239 112.686 31.3943 113.073 31.8067L114.219 30.6261Z" fill="black"/>
<path d="M115.012 33.1722C115.012 35.3201 116.614 36.7568 118.617 36.7568C120.619 36.7568 122.221 35.3201 122.221 33.1722C122.221 31.0244 120.619 29.5878 118.617 29.5878C116.614 29.5878 115.012 31.0244 115.012 33.1722ZM116.669 33.1722C116.669 32.1055 117.401 31.1239 118.617 31.1239C119.832 31.1239 120.564 32.1055 120.564 33.1722C120.564 34.2391 119.832 35.2206 118.617 35.2206C117.401 35.2206 116.669 34.2391 116.669 33.1722Z" fill="black"/>
<path d="M123.842 36.5861H125.499V32.8593C125.499 31.9489 125.927 31.1239 127.019 31.1239C127.819 31.1239 128.15 31.6787 128.15 32.5179V36.5861H129.808V32.8878C129.808 32.0058 130.194 31.1239 131.231 31.1239C132.211 31.1239 132.46 31.8636 132.46 32.7171V36.5861H134.117V32.5179C134.117 30.8822 133.495 29.5878 131.728 29.5878C130.733 29.5878 130.029 29.986 129.545 30.8537C129.2 30.0002 128.496 29.5878 127.474 29.5878C126.369 29.5878 125.734 30.1852 125.444 30.8253H125.416V29.7584H123.842V36.5861Z" fill="black"/>
<path d="M4.46094 0.265747H13.3589V1.39013H11.7507C11.4064 1.39013 11.1559 1.46268 10.9994 1.60776C10.8429 1.74478 10.7646 1.95031 10.7646 2.22436V16.0676C10.7646 16.39 10.8468 16.6197 11.0112 16.7568C11.2225 16.9341 11.5277 17.0227 11.9268 17.0227H13.3589V18.1471H4.46094V17.0227H5.82264C6.29218 17.0227 6.62087 16.9421 6.80869 16.781C7.00433 16.6197 7.10215 16.3819 7.10215 16.0676V2.38153C7.10215 2.04301 7.01216 1.79314 6.83216 1.63194C6.66 1.47074 6.38609 1.39013 6.01045 1.39013H4.46094V0.265747Z" fill="black"/>
<path d="M16.345 0.265747H21.7331L31.1357 12.5252V4.19506C31.1357 3.37293 30.9088 2.71603 30.4549 2.22436C30.001 1.72463 29.3554 1.44655 28.518 1.39013V0.265747H34.857V1.39013C33.9726 1.48685 33.3388 1.7609 32.9552 2.21227C32.5718 2.65558 32.3801 3.31651 32.3801 4.19506V18.1471H31.0301L20.3244 4.0258V13.8067C20.3244 14.9271 20.5709 15.7452 21.0639 16.261C21.5648 16.7689 22.183 17.0227 22.9187 17.0227H23.2121V18.1471H16.2041V17.0227H16.6854C17.374 17.0227 17.9532 16.7406 18.4227 16.1764C18.8923 15.6122 19.127 14.8868 19.127 14.0002V2.44198C18.6027 1.74075 17.9336 1.39013 17.1197 1.39013H16.345V0.265747Z" fill="black"/>
<path d="M37.5735 0.265747H42.9616L52.3643 12.5252V4.19506C52.3643 3.37293 52.1374 2.71603 51.6835 2.22436C51.2296 1.72463 50.5839 1.44655 49.7466 1.39013V0.265747H56.0855V1.39013C55.2012 1.48685 54.5673 1.7609 54.1838 2.21227C53.8004 2.65558 53.6087 3.31651 53.6087 4.19506V18.1471H52.2587L41.553 4.0258V13.8067C41.553 14.9271 41.7994 15.7452 42.2924 16.261C42.7933 16.7689 43.4116 17.0227 44.1472 17.0227H44.4406V18.1471H37.4326V17.0227H37.9139C38.6026 17.0227 39.1818 16.7406 39.6512 16.1764C40.1208 15.6122 40.3556 14.8868 40.3556 14.0002V2.44198C39.8312 1.74075 39.1622 1.39013 38.3483 1.39013H37.5735V0.265747Z" fill="black"/>
<path d="M75.1309 2.17603H76.1873V6.83075H79.8146V8.13649H76.1873V15.3301C76.1873 15.8057 76.3047 16.1765 76.5395 16.4425C76.7743 16.7003 77.0835 16.8293 77.4669 16.8293C78.5625 16.8293 79.1416 15.7775 79.2042 13.6737H80.2607C80.2372 14.7942 80.0651 15.6969 79.7442 16.382C79.4234 17.0591 78.9616 17.583 78.359 17.9538C77.7642 18.3245 77.0912 18.5098 76.34 18.5098C75.6826 18.5098 75.1113 18.3729 74.6261 18.0988C74.1487 17.8248 73.7653 17.4178 73.4757 16.8777C73.194 16.3296 73.0531 15.7372 73.0531 15.1004V8.13649H71.1045V7.02419C72.2941 6.86299 73.2214 6.39147 73.8866 5.60964C74.5517 4.82781 74.9666 3.68327 75.1309 2.17603Z" fill="black"/>
<path d="M94.5515 12.5618H86.8394C86.8627 14.1496 87.1713 15.3224 87.7661 16.08C88.3687 16.8296 89.1403 17.2045 90.0791 17.2045C90.7523 17.2045 91.3894 17.0111 91.992 16.6241C92.5946 16.2373 93.2135 15.536 93.8472 14.5205L94.7041 15.0645C94.0385 16.2735 93.2756 17.1399 92.4153 17.6639C91.5618 18.1798 90.517 18.4376 89.2808 18.4376C87.4808 18.4376 86.0252 17.8735 84.914 16.745C83.8027 15.6166 83.2471 14.1698 83.2471 12.4047C83.2471 10.6395 83.8066 9.16448 84.9257 7.97965C86.0447 6.79481 87.4178 6.20239 89.0463 6.20239C90.173 6.20239 91.1394 6.44016 91.9454 6.91571C92.7592 7.39125 93.3894 8.08846 93.8351 9.00733C94.2894 9.91808 94.5282 11.103 94.5515 12.5618ZM86.8394 11.4737H90.5135C90.8575 11.4737 91.1041 11.385 91.2532 11.2078C91.4015 11.0304 91.4756 10.708 91.4756 10.2405C91.4756 9.30555 91.2687 8.58415 90.8541 8.07637C90.4385 7.56052 89.911 7.3026 89.2687 7.3026C88.5101 7.3026 87.9265 7.64918 87.5196 8.34236C87.1204 9.0355 86.8937 10.0793 86.8394 11.4737Z" fill="black"/>
<path d="M97.8906 0.265984L103.032 0V16.092C103.032 16.3822 103.122 16.6119 103.302 16.7812C103.482 16.9424 103.74 17.023 104.077 17.023H104.769V18.1474H98.1604V17.023H98.9113C99.2561 17.023 99.5105 16.9303 99.6742 16.7449C99.8467 16.5515 99.9329 16.2613 99.9329 15.8744V2.65984C99.9329 2.24877 99.8234 1.93443 99.6044 1.71681C99.3855 1.49112 99.088 1.37828 98.7122 1.37828H97.8906V0.265984Z" fill="black"/>
<path d="M114.923 0.265984L120.064 0V16.092C120.064 16.3822 120.155 16.6119 120.334 16.7812C120.514 16.9424 120.773 17.023 121.109 17.023H121.802V18.1474H115.193V17.023H115.944C116.288 17.023 116.543 16.9303 116.707 16.7449C116.88 16.5515 116.965 16.2613 116.965 15.8744V2.65984C116.965 2.24877 116.856 1.93443 116.637 1.71681C116.418 1.49112 116.12 1.37828 115.744 1.37828H114.923V0.265984Z" fill="black"/>
<path d="M126.896 0.302368C127.421 0.302368 127.871 0.495812 128.246 0.882697C128.622 1.26153 128.81 1.72498 128.81 2.27307C128.81 2.82115 128.622 3.28865 128.246 3.67553C127.871 4.05435 127.421 4.24377 126.896 4.24377C126.364 4.24377 125.91 4.05033 125.535 3.66344C125.159 3.27655 124.971 2.8131 124.971 2.27307C124.971 1.72498 125.159 1.26153 125.535 0.882697C125.91 0.495812 126.364 0.302368 126.896 0.302368ZM123.88 6.83107L128.763 6.60136V16.2131C128.763 16.471 128.841 16.6725 128.998 16.8175C129.162 16.9546 129.408 17.0231 129.738 17.0231H130.476V18.1475H123.88V17.0231H124.607C124.999 17.0231 125.273 16.9304 125.429 16.745C125.594 16.5597 125.676 16.2373 125.676 15.7778V9.22491C125.676 8.81386 125.558 8.49548 125.324 8.2698C125.096 8.04411 124.78 7.93128 124.373 7.93128H123.88V6.83107Z" fill="black"/>
<path d="M150.878 6.83083C151.816 5.67823 152.748 5.10193 153.671 5.10193C154.141 5.10193 154.516 5.24299 154.798 5.52509C155.08 5.80719 155.221 6.1699 155.221 6.61321C155.221 7.00815 155.111 7.32652 154.892 7.56833C154.681 7.80207 154.411 7.91894 154.082 7.91894C153.621 7.91894 153.288 7.66505 153.084 7.15726C152.959 6.85098 152.81 6.69784 152.639 6.69784C152.419 6.69784 152.121 6.93561 151.746 7.41116C152.591 8.28972 153.014 9.2166 153.014 10.1919C153.014 10.9496 152.815 11.6347 152.415 12.2473C152.016 12.8598 151.409 13.3475 150.596 13.7101C149.79 14.0729 148.78 14.2542 147.567 14.2542L146.311 14.23C145.38 14.23 144.75 14.3267 144.421 14.5202C144.084 14.7137 143.916 14.9635 143.916 15.2698C143.916 15.5358 144.022 15.7332 144.234 15.8622C144.508 16.0395 144.946 16.1282 145.548 16.1282L146.628 16.0919C147.794 16.0275 148.651 15.9952 149.199 15.9952C151.022 15.9952 152.29 16.2611 153.003 16.7931C153.715 17.3251 154.071 18.0627 154.071 19.0057C154.071 20.134 153.659 21.0408 152.838 21.7259C151.836 22.5642 150.087 22.9833 147.59 22.9833C145.462 22.9833 143.967 22.7294 143.107 22.2217C142.246 21.7139 141.815 21.1174 141.815 20.4323C141.815 20.0051 141.999 19.6303 142.367 19.3079C142.734 18.9855 143.514 18.6833 144.703 18.4011C143.928 18.2399 143.346 17.9659 142.954 17.579C142.563 17.1922 142.367 16.6924 142.367 16.0798C142.367 15.5236 142.512 15.0522 142.802 14.6652C143.099 14.2784 143.627 13.9358 144.386 13.6376C143.666 13.2346 143.122 12.755 142.754 12.1988C142.395 11.6427 142.215 11.01 142.215 10.3007C142.215 9.53501 142.414 8.84586 142.813 8.23329C143.212 7.61266 143.827 7.121 144.656 6.75828C145.485 6.38752 146.495 6.20214 147.684 6.20214C148.248 6.20214 148.796 6.25453 149.328 6.35932C149.86 6.4641 150.377 6.62126 150.878 6.83083ZM147.615 7.26608C147.074 7.26608 146.609 7.52803 146.217 8.05194C145.834 8.56779 145.642 9.31332 145.642 10.2886C145.642 11.2316 145.834 11.953 146.217 12.4528C146.601 12.9525 147.071 13.2024 147.626 13.2024C148.174 13.2024 148.643 12.9444 149.034 12.4286C149.426 11.9127 149.621 11.1874 149.621 10.2523C149.621 9.30932 149.426 8.57585 149.034 8.05194C148.643 7.52803 148.17 7.26608 147.615 7.26608ZM152.215 20.1179C152.215 19.6424 151.958 19.2958 151.441 19.0782C151.089 18.9251 150.306 18.8485 149.093 18.8485C146.902 18.8485 145.49 19.0016 144.856 19.3079C144.221 19.6142 143.905 19.9971 143.905 20.4564C143.905 20.8917 144.152 21.2544 144.644 21.5446C145.137 21.8428 146.072 21.9919 147.45 21.9919C149.242 21.9919 150.534 21.7783 151.324 21.3512C151.918 21.0207 152.215 20.6096 152.215 20.1179Z" fill="black"/>
<path d="M169.089 12.5618H161.376C161.4 14.1497 161.709 15.3225 162.304 16.0801C162.907 16.8297 163.677 17.2045 164.616 17.2045C165.289 17.2045 165.927 17.011 166.53 16.6241C167.132 16.2372 167.751 15.5361 168.384 14.5204L169.241 15.0645C168.576 16.2735 167.814 17.14 166.952 17.6639C166.1 18.1797 165.055 18.4377 163.818 18.4377C162.018 18.4377 160.563 17.8735 159.451 16.745C158.34 15.6166 157.784 14.1698 157.784 12.4047C157.784 10.6395 158.344 9.1645 159.463 7.97965C160.582 6.79481 161.956 6.20239 163.583 6.20239C164.71 6.20239 165.676 6.44016 166.482 6.91571C167.297 7.39125 167.926 8.08845 168.373 9.00734C168.826 9.9181 169.065 11.103 169.089 12.5618ZM161.376 11.4737H165.051C165.395 11.4737 165.642 11.385 165.79 11.2077C165.939 11.0304 166.014 10.708 166.014 10.2405C166.014 9.30557 165.806 8.58415 165.391 8.07637C164.976 7.56052 164.448 7.3026 163.807 7.3026C163.047 7.3026 162.464 7.64918 162.057 8.34235C161.658 9.03552 161.432 10.0793 161.376 11.4737Z" fill="black"/>
<path d="M187.383 17.0231V18.1476H180.774V17.0231H181.466C181.834 17.0231 182.108 16.9264 182.288 16.733C182.468 16.5396 182.558 16.2574 182.558 15.8867V10.9781C182.558 10.1398 182.371 9.49903 181.995 9.05574C181.627 8.60435 181.141 8.37867 180.539 8.37867C179.717 8.37867 179.048 8.69704 178.532 9.33379C178.016 9.9625 177.757 10.8853 177.757 12.1024V15.8867C177.757 16.2574 177.847 16.5396 178.027 16.733C178.215 16.9264 178.453 17.0231 178.743 17.0231H179.577V18.1476H172.721V17.0231H173.613C173.958 17.0231 174.216 16.9264 174.388 16.733C174.568 16.5396 174.658 16.2574 174.658 15.8867V9.15246C174.658 8.76556 174.528 8.45927 174.271 8.23359C174.02 7.99984 173.688 7.88297 173.272 7.88297H172.803V6.83112L177.381 6.57723C177.546 7.2704 177.671 8.09656 177.757 9.05574C178.398 8.16104 179.084 7.49206 179.811 7.04875C180.539 6.60544 181.306 6.38379 182.112 6.38379C183.208 6.38379 184.072 6.75858 184.706 7.50817C185.333 8.25776 185.646 9.30152 185.646 10.6396V15.8867C185.646 16.2897 185.735 16.5798 185.916 16.7572C186.096 16.9345 186.381 17.0231 186.772 17.0231H187.383Z" fill="black"/>
<path d="M193.796 2.17603H194.853V6.83074H198.48V8.13649H194.853V15.3301C194.853 15.8057 194.971 16.1764 195.205 16.4425C195.44 16.7003 195.749 16.8293 196.133 16.8293C197.228 16.8293 197.808 15.7775 197.87 13.6738H198.927C198.903 14.7941 198.731 15.6969 198.41 16.382C198.089 17.059 197.627 17.5829 197.025 17.9537C196.43 18.3245 195.757 18.5099 195.006 18.5099C194.348 18.5099 193.777 18.3729 193.292 18.0988C192.814 17.8248 192.431 17.4177 192.141 16.8777C191.859 16.3296 191.719 15.7371 191.719 15.1004V8.13649H189.771V7.02419C190.96 6.86298 191.887 6.39147 192.552 5.60964C193.218 4.8278 193.633 3.68327 193.796 2.17603Z" fill="black"/>
<path d="M64.1949 12.3523C66.0312 12.3523 67.5197 10.8191 67.5197 8.9279C67.5197 7.03668 66.0312 5.50354 64.1949 5.50354C62.3587 5.50354 60.8701 7.03668 60.8701 8.9279C60.8701 10.8191 62.3587 12.3523 64.1949 12.3523Z" fill="#3AABCD"/>
<path d="M110.742 12.3523C112.578 12.3523 114.067 10.8191 114.067 8.9279C114.067 7.03668 112.578 5.50354 110.742 5.50354C108.906 5.50354 107.417 7.03668 107.417 8.9279C107.417 10.8191 108.906 12.3523 110.742 12.3523Z" fill="#3AABCD"/>
<path d="M135.806 12.3523C137.642 12.3523 139.131 10.8191 139.131 8.9279C139.131 7.03668 137.642 5.50354 135.806 5.50354C133.97 5.50354 132.481 7.03668 132.481 8.9279C132.481 10.8191 133.97 12.3523 135.806 12.3523Z" fill="#3AABCD"/>
</g>
<defs>
<clipPath id="clip0_5_970">
<rect width="200" height="40" fill="white"/>
</clipPath>
</defs>
</svg>
