<svg width="30" height="30" viewBox="0 0 30 30" fill="none" xmlns="http://www.w3.org/2000/svg">
<path d="M15 18.75C16.3807 18.75 17.5 17.6307 17.5 16.25C17.5 14.8693 16.3807 13.75 15 13.75C13.6193 13.75 12.5 14.8693 12.5 16.25C12.5 17.6307 13.6193 18.75 15 18.75Z" stroke="white" stroke-width="2" stroke-linecap="round" stroke-linejoin="round"/>
<path d="M16.8125 14.4375L19.375 11.875" stroke="white" stroke-width="2" stroke-linecap="round" stroke-linejoin="round"/>
<path d="M8 25C6.17269 23.5476 4.84239 21.5628 4.19347 19.3206C3.54456 17.0784 3.60915 14.6899 4.37831 12.486C5.14746 10.2822 6.58309 8.37214 8.48623 7.02063C10.3894 5.66912 12.6658 4.94305 15 4.94305C17.3342 4.94305 19.6106 5.66912 21.5138 7.02063C23.4169 8.37214 24.8525 10.2822 25.6217 12.486C26.3908 14.6899 26.4554 17.0784 25.8065 19.3206C25.1576 21.5628 23.8273 23.5476 22 25H8Z" stroke="white" stroke-width="2" stroke-linecap="round" stroke-linejoin="round"/>
</svg>
