<svg width="30" height="30" viewBox="0 0 30 30" fill="none" xmlns="http://www.w3.org/2000/svg">
<path d="M24.5909 4.77273C25.6955 4.77273 26.5909 5.66816 26.5909 6.77273V23.5227C26.5909 23.9748 26.4552 24.4084 26.2137 24.728C25.9722 25.0477 25.6446 25.2273 25.303 25.2273H4.69697C4.3554 25.2273 4.02782 25.0477 3.7863 24.728C3.54477 24.4084 3.40909 23.9748 3.40909 23.5227V6.47727C3.40909 6.0252 3.54477 5.59164 3.7863 5.27198C4.02782 4.95231 4.3554 4.77273 4.69697 4.77273H24.5909Z" stroke="white" stroke-width="1.5" stroke-linecap="round" stroke-linejoin="round"/>
<path d="M7.5 17.1591V22.1591" stroke="white" stroke-width="1.5" stroke-linecap="round" stroke-linejoin="round"/>
<path d="M17.5 13.4091V22.1591" stroke="white" stroke-width="1.5" stroke-linecap="round" stroke-linejoin="round"/>
<path d="M12.5 12.1591V22.1591" stroke="white" stroke-width="1.5" stroke-linecap="round" stroke-linejoin="round"/>
<path d="M22.5 10.9091V22.1591" stroke="white" stroke-width="1.5" stroke-linecap="round" stroke-linejoin="round"/>
</svg>
