<svg width="30" height="30" viewBox="0 0 30 30" fill="none" xmlns="http://www.w3.org/2000/svg">
<path d="M15 29C22.732 29 29 22.732 29 15C29 7.26801 22.732 1 15 1C7.26801 1 1 7.26801 1 15C1 22.732 7.26801 29 15 29Z" stroke="white" stroke-width="1.5" stroke-linecap="round" stroke-linejoin="round"/>
<path d="M15 21.25V21.2628" stroke="white" stroke-width="2" stroke-linecap="round" stroke-linejoin="round"/>
<path d="M14.997 17C14.9694 16.5028 15.1006 16.0098 15.3709 15.5954C15.6412 15.181 16.0359 14.8676 16.4955 14.7024C17.0588 14.4822 17.5643 14.1314 17.9724 13.6776C18.3805 13.2237 18.6799 12.6793 18.8472 12.0871C19.0144 11.4948 19.0449 10.871 18.9362 10.2647C18.8275 9.65839 18.5826 9.08614 18.2208 8.59302C17.859 8.0999 17.3901 7.69935 16.8511 7.42292C16.3121 7.14649 15.7177 7.00173 15.1147 7.00002C14.5117 6.99831 13.9165 7.1397 13.376 7.41307C12.8355 7.68644 12.3645 8.08432 12 8.57538" stroke="white" stroke-width="1.5" stroke-linecap="round" stroke-linejoin="round"/>
</svg>
