<svg width="30" height="30" viewBox="0 0 30 30" fill="none" xmlns="http://www.w3.org/2000/svg">
<path d="M8.75 13.75V23.75C8.75 24.0815 8.6183 24.3995 8.38388 24.6339C8.14946 24.8683 7.83152 25 7.5 25H5C4.66848 25 4.35054 24.8683 4.11612 24.6339C3.8817 24.3995 3.75 24.0815 3.75 23.75V15C3.75 14.6685 3.8817 14.3505 4.11612 14.1161C4.35054 13.8817 4.66848 13.75 5 13.75H8.75ZM8.75 13.75C10.0761 13.75 11.3479 13.2232 12.2855 12.2855C13.2232 11.3479 13.75 10.0761 13.75 8.75V7.5C13.75 6.83696 14.0134 6.20107 14.4822 5.73223C14.9511 5.26339 15.587 5 16.25 5C16.913 5 17.5489 5.26339 18.0178 5.73223C18.4866 6.20107 18.75 6.83696 18.75 7.5V13.75H22.5C23.163 13.75 23.7989 14.0134 24.2678 14.4822C24.7366 14.9511 25 15.587 25 16.25L23.75 22.5C23.5702 23.2668 23.2292 23.9253 22.7783 24.3762C22.3274 24.8271 21.791 25.046 21.25 25H12.5C11.5054 25 10.5516 24.6049 9.84835 23.9017C9.14509 23.1984 8.75 22.2446 8.75 21.25" stroke="white" stroke-width="1.5" stroke-linecap="round" stroke-linejoin="round"/>
</svg>
