<svg width="213" height="213" viewBox="0 0 213 213" fill="none" xmlns="http://www.w3.org/2000/svg">
<path d="M74.1514 55.1913L78.3606 66.8747L196.139 65.4979C199.128 65.4586 201.449 68.0549 201.134 71.0052L191.693 156.408C191.261 160.145 188.114 162.977 184.376 163.017L29.8568 164.826C26.1197 164.866 22.894 162.112 22.3826 158.414L8.73232 59.5972C8.14225 55.1914 11.5646 51.2182 16.0492 51.1395L66.1265 50.5495C69.4308 50.5101 72.4992 52.2803 74.1514 55.1913Z" fill="#FFCB00"/>
<path d="M74.1905 57.5514L78.3997 69.2348L196.138 67.858C199.167 67.8187 201.488 70.415 201.134 73.4046L194.486 158.768L19.6287 160.814L8.7714 61.9966C8.18133 57.5514 11.6037 53.5783 16.0489 53.539L66.1656 52.9489C69.4699 52.9095 72.5383 54.6798 74.1905 57.5514Z" fill="#FFBA00"/>
<path d="M200.78 78.2434L194.486 158.768L19.6281 160.814L10.8164 80.4857L200.78 78.2434Z" fill="#E79A15"/>
<path d="M121.672 113.372L32.139 130.524L10.6211 18.2923L100.115 1.10156L121.672 113.372Z" fill="#F8F8F8"/>
<g style="mix-blend-mode:multiply" opacity="0.4">
<path d="M121.672 113.372L108.651 115.851L84.5762 112.821L98.7379 1.37693L100.115 1.10156L121.672 113.372Z" fill="#D3E2EC"/>
</g>
<path d="M86.5026 17.4661L29.3445 28.4414L28.4004 23.5241L85.5585 12.5488L86.5026 17.4661Z" fill="#D1D2D3"/>
<path d="M99.1706 83.6326L42.0125 94.6079L41.0684 89.6906L98.2265 78.7153L99.1706 83.6326Z" fill="#D1D2D3"/>
<path d="M101.097 93.5064L43.8992 104.482L42.9551 99.5644L100.153 88.5891L101.097 93.5064Z" fill="#D1D2D3"/>
<path d="M102.985 103.38L45.8269 114.356L44.8828 109.438L102.041 98.4631L102.985 103.38Z" fill="#D1D2D3"/>
<path d="M73.1291 25.137L44.5697 30.6443L44.0977 28.166L72.657 22.698L73.1291 25.137Z" fill="#D1D2D3"/>
<path d="M58.9279 40.8328L27.3002 46.8908L26.8281 44.4125L58.4559 38.3545L58.9279 40.8328Z" fill="#D1D2D3"/>
<path d="M60.3049 48.1104L28.6771 54.1684L28.2051 51.7295L59.8328 45.6321L60.3049 48.1104Z" fill="#D1D2D3"/>
<path d="M61.7209 55.388L30.0932 61.446L29.6211 59.0071L61.2489 52.9097L61.7209 55.388Z" fill="#D1D2D3"/>
<path d="M63.0979 62.6655L31.4701 68.7236L30.998 66.2846L62.6258 60.2266L63.0979 62.6655Z" fill="#D1D2D3"/>
<path d="M64.5139 69.9431L32.8861 76.0012L32.4141 73.5622L64.0418 67.5042L64.5139 69.9431Z" fill="#D1D2D3"/>
<path d="M65.8908 77.2205L34.2631 83.3178L33.791 80.8396L65.4188 74.7815L65.8908 77.2205Z" fill="#D1D2D3"/>
<path d="M97.0842 33.4768L65.4564 39.5742L64.9844 37.0959L96.6121 31.0378L97.0842 33.4768Z" fill="#D1D2D3"/>
<path d="M98.4611 40.7935L66.8334 46.8515L66.3613 44.3732L97.9891 38.3152L98.4611 40.7935Z" fill="#D1D2D3"/>
<path d="M99.8791 48.0711L68.2514 54.1291L67.7793 51.6902L99.4071 45.5928L99.8791 48.0711Z" fill="#D1D2D3"/>
<path d="M101.256 55.3486L69.6283 61.4067L69.1562 58.9677L100.784 52.9097L101.256 55.3486Z" fill="#D1D2D3"/>
<path d="M102.672 62.6262L71.0443 68.6843L70.5723 66.2453L102.2 60.1873L102.672 62.6262Z" fill="#D1D2D3"/>
<path d="M104.049 69.9035L72.4603 76.0009L71.9883 73.5226L103.577 67.4646L104.049 69.9035Z" fill="#D1D2D3"/>
<path d="M179.459 124.898L89.0605 113.372L103.458 0L193.857 11.4867L179.459 124.898Z" fill="#F8F8F8"/>
<path d="M175.84 22.816L118.092 15.4598L118.721 10.5032L176.469 17.8594L175.84 22.816Z" fill="#D1D2D3"/>
<path d="M167.344 89.6514L109.596 82.2952L110.225 77.3386L167.973 84.6948L167.344 89.6514Z" fill="#D1D2D3"/>
<path d="M166.084 99.6038L108.336 92.2869L108.965 87.3303L166.714 94.6472L166.084 99.6038Z" fill="#D1D2D3"/>
<path d="M164.785 109.596L107.037 102.24L107.667 97.283L165.415 104.639L164.785 109.596Z" fill="#D1D2D3"/>
<path d="M160.774 25.9631L131.9 22.3047L132.215 19.8264L161.089 23.4848L160.774 25.9631Z" fill="#D1D2D3"/>
<path d="M142.362 36.4271L110.42 32.3753L110.735 29.897L142.677 33.9488L142.362 36.4271Z" fill="#D1D2D3"/>
<path d="M141.419 43.7833L109.477 39.7315L109.791 37.2532L141.734 41.305L141.419 43.7833Z" fill="#D1D2D3"/>
<path d="M140.515 51.1395L108.533 47.0877L108.887 44.6094L140.83 48.6612L140.515 51.1395Z" fill="#D1D2D3"/>
<path d="M139.569 58.4957L107.627 54.4439L107.942 51.9656L139.884 56.0174L139.569 58.4957Z" fill="#D1D2D3"/>
<path d="M138.626 65.8519L106.684 61.8001L106.998 59.3218L138.941 63.3736L138.626 65.8519Z" fill="#D1D2D3"/>
<path d="M137.683 73.2081L105.74 69.1563L106.055 66.678L137.997 70.7298L137.683 73.2081Z" fill="#D1D2D3"/>
<path d="M180.915 41.3443L148.973 37.2532L149.287 34.7749L181.23 38.8661L180.915 41.3443Z" fill="#D1D2D3"/>
<path d="M179.972 48.7006L148.029 44.6487L148.344 42.1311L180.286 46.2223L179.972 48.7006Z" fill="#D1D2D3"/>
<path d="M179.026 56.0567L147.084 52.0049L147.399 49.5266L179.341 53.5784L179.026 56.0567Z" fill="#D1D2D3"/>
<path d="M178.122 63.4129L146.18 59.3611L146.494 56.8828L178.437 60.9346L178.122 63.4129Z" fill="#D1D2D3"/>
<path d="M177.177 70.7691L145.234 66.7173L145.549 64.239L177.492 68.2908L177.177 70.7691Z" fill="#D1D2D3"/>
<path d="M176.233 78.1253L144.291 74.0735L144.606 71.5952L176.548 75.647L176.233 78.1253Z" fill="#D1D2D3"/>
<path d="M191.811 208.334L23.1297 210.301C19.0385 210.34 15.5374 207.351 14.9867 203.299L0.0776018 95.4341C-0.591144 90.5955 3.14597 86.2683 8.06322 86.1897L203.966 83.9081C208.884 83.8294 212.699 88.0779 212.149 92.9558L199.797 201.096C199.325 205.187 195.902 208.255 191.811 208.334Z" fill="#FFFF5F"/>
<path d="M191.85 210.694L23.1687 212.7C19.0776 212.74 15.5765 209.711 15.0258 205.659L0.116683 97.8335C-0.552063 92.9949 3.18505 88.6284 8.06296 88.5891L204.006 86.3075C208.923 86.2288 212.739 90.4773 212.188 95.3552L199.836 203.495C199.364 207.587 195.941 210.655 191.85 210.694Z" fill="#FFD600"/>
</svg>
