<svg width="30" height="30" viewBox="0 0 30 30" fill="none"
  xmlns="http://www.w3.org/2000/svg">
  <path d="M18.75 10H18.7606" stroke="currentColor" stroke-width="1.5" stroke-linecap="round" stroke-linejoin="round"/>
  <path d="M21.25 5H8.75C6.67893 5 5 6.67893 5 8.75V21.25C5 23.3211 6.67893 25 8.75 25H21.25C23.3211 25 25 23.3211 25 21.25V8.75C25 6.67893 23.3211 5 21.25 5Z" stroke="currentColor" stroke-width="1.5" stroke-linecap="round" stroke-linejoin="round"/>
  <path d="M5 18.7504L10 13.7504C10.5701 13.2019 11.2167 12.9131 11.875 12.9131C12.5333 12.9131 13.1799 13.2019 13.75 13.7504L20 20.0004" stroke="currentColor" stroke-width="1.5" stroke-linecap="round" stroke-linejoin="round"/>
  <path d="M17.5 17.5004L18.75 16.2504C19.3201 15.7019 19.9667 15.4131 20.625 15.4131C21.2833 15.4131 21.9299 15.7019 22.5 16.2504L25 18.7504" stroke="currentColor" stroke-width="1.5" stroke-linecap="round" stroke-linejoin="round"/>
</svg>
