<svg width="24" height="24" viewBox="0 0 24 24" fill="none" xmlns="http://www.w3.org/2000/svg">
<path d="M15 6.81836V10.8184C15 11.0836 15.1054 11.3379 15.2929 11.5255C15.4804 11.713 15.7348 11.8184 16 11.8184H20" stroke="black" stroke-width="1.5" stroke-linecap="round" stroke-linejoin="round"/>
<path d="M18 20.8184H11C10.4696 20.8184 9.96086 20.6076 9.58579 20.2326C9.21071 19.8575 9 19.3488 9 18.8184V8.81836C9 8.28793 9.21071 7.77922 9.58579 7.40415C9.96086 7.02907 10.4696 6.81836 11 6.81836H15L20 11.8184V18.8184C20 19.3488 19.7893 19.8575 19.4142 20.2326C19.0391 20.6076 18.5304 20.8184 18 20.8184Z" stroke="black" stroke-width="1.5" stroke-linecap="round" stroke-linejoin="round"/>
<path d="M16 6.99982V5.38164C16 4.16661 15.015 3.18164 13.8 3.18164H7C6.46957 3.18164 5.96086 3.39235 5.58579 3.76743C5.21071 4.1425 5 4.65121 5 5.18164V15.1816C5 15.7121 5.21071 16.2208 5.58579 16.5959C5.96086 16.9709 6.46957 17.1816 7 17.1816H9" stroke="black" stroke-width="1.5" stroke-linecap="round" stroke-linejoin="round"/>
</svg>
