<!-- <svg width="30" height="30" viewBox="0 0 30 30" fill="none" xmlns="http://www.w3.org/2000/svg">
    <path d="M22.5 6.25H7.5C6.11929 6.25 5 7.36929 5 8.75V23.75C5 25.1307 6.11929 26.25 7.5 26.25H22.5C23.8807 26.25 25 25.1307 25 23.75V8.75C25 7.36929 23.8807 6.25 22.5 6.25Z" stroke="currentColor" stroke-width="1.5" stroke-linecap="round" stroke-linejoin="round"/>
    <path d="M20 3.75V8.75" stroke="currentColor" stroke-width="1.5" stroke-linecap="round" stroke-linejoin="round"/>
    <path d="M10 3.75V8.75" stroke="currentColor" stroke-width="1.5" stroke-linecap="round" stroke-linejoin="round"/>
    <path d="M5 13.75H25" stroke="currentColor" stroke-width="1.5" stroke-linecap="round" stroke-linejoin="round"/>
    <path d="M14 19H16" stroke="currentColor" stroke-width="1.5" stroke-linecap="round" stroke-linejoin="round"/>
</svg> -->

<svg xmlns="http://www.w3.org/2000/svg" class="icon icon-tabler icon-tabler-calendar-minus" width="30" height="30" viewBox="0 0 24 24" stroke-width="1.5" stroke="currentColor" fill="none" stroke-linecap="round" stroke-linejoin="round">
    <path stroke="none" d="M0 0h24v24H0z" fill="none"/>
    <rect x="4" y="5" width="16" height="16" rx="2" />
    <line x1="16" y1="3" x2="16" y2="7" />
    <line x1="8" y1="3" x2="8" y2="7" />
    <line x1="4" y1="11" x2="20" y2="11" />
    <line x1="10" y1="16" x2="14" y2="16" />
</svg>
