<svg width="236.95645" height="45.999802" viewBox="0 0 236.95645 45.999802" fill="none" stroke-linejoin="round" version="1.1" id="svg72" sodipodi:docname="cfb7df68fff86839405b94b5590af66c.svg"
    xmlns:inkscape="http://www.inkscape.org/namespaces/inkscape"
    xmlns:sodipodi="http://sodipodi.sourceforge.net/DTD/sodipodi-0.dtd"
    xmlns="http://www.w3.org/2000/svg"
    xmlns:svg="http://www.w3.org/2000/svg">
    <defs id="defs76" />
    <sodipodi:namedview id="namedview74" pagecolor="#ffffff" bordercolor="#666666" borderopacity="1.0" inkscape:pageshadow="2" inkscape:pageopacity="0.0" inkscape:pagecheckerboard="0" />
    <path d="M 1,25.9056 H 235.95645" stroke="#6dbbd1" stroke-width="2" stroke-linecap="round" id="path2" />
    <path d="M 5.36711,42.0743 H 7.33163 V 34.2225 H 5.36711 Z M 5.0888,31.5561 c 0,0.6216 0.52388,1.1778 1.24421,1.1778 0.72032,0 1.27693,-0.5071 1.27693,-1.1778 0,-0.6707 -0.55661,-1.1777 -1.27693,-1.1777 -0.72033,0 -1.24421,0.5561 -1.24421,1.1777 z" fill="#ffffff" id="path4" />
    <path d="m 9.74896,42.0739 h 1.96389 v -4.2857 c 0,-1.047 0.5073,-1.9957 1.8002,-1.9957 1.3747,0 1.4402,1.4395 1.4402,2.3064 v 3.975 h 1.9639 v -4.9564 c 0,-1.6031 -0.7529,-3.0916 -2.864,-3.0916 -1.3092,0 -2.0458,0.6707 -2.4058,1.4558 h -0.0327 V 34.2221 H 9.74896 Z" fill="#ffffff" id="path6" />
    <path d="m 19.31045,42.0739 h 1.9639 v -4.2857 c 0,-1.047 0.5074,-1.9957 1.8002,-1.9957 1.3747,0 1.4402,1.4395 1.4402,2.3064 v 3.975 h 1.9639 v -4.9564 c 0,-1.6031 -0.7528,-3.0916 -2.864,-3.0916 -1.3093,0 -2.0457,0.6707 -2.4058,1.4558 h -0.0327 v -1.2596 h -1.8657 z" fill="#ffffff" id="path8" />
    <path d="m 29.57515,35.8908 v 3.5987 c 0,1.8485 0.4909,2.7809 2.5694,2.7809 0.4583,0 1.1457,-0.0654 1.5548,-0.2617 v -1.6522 c -0.2455,0.18 -0.7201,0.2454 -1.0639,0.2454 -0.8674,0 -1.0964,-0.4907 -1.0964,-1.2759 v -3.4352 h 2.1603 v -1.6685 h -2.1603 v -2.2737 h -1.9639 v 2.2737 h -1.6202 v 1.6685 z" fill="#ffffff" id="path10" />
    <path d="m 42.95715,38.835 v -0.5397 c 0,-2.7318 -1.4893,-4.2694 -3.6823,-4.2694 -2.373,0 -4.2715,1.6521 -4.2715,4.1221 0,2.4701 1.8985,4.1222 4.2715,4.1222 1.2438,0 2.4058,-0.4417 3.3222,-1.5703 l -1.4074,-1.0633 c -0.4909,0.6052 -1.1292,1.0633 -2.1112,1.0633 -1.0965,0 -1.9802,-0.7034 -2.1112,-1.8649 z m -5.9899,-1.4722 c 0.1473,-1.1286 0.8674,-1.8647 2.0293,-1.8647 1.2275,0 1.9803,0.7197 1.9967,1.8647 z" fill="#ffffff" id="path12" />
    <path d="m 44.98965,42.0741 h 1.9646 V 29.7075 h -1.9646 z" fill="#ffffff" id="path14" />
    <path d="m 49.40485,42.0742 h 1.9645 V 29.7076 h -1.9645 z" fill="#ffffff" id="path16" />
    <path d="m 53.81975,42.0743 h 1.9645 v -7.8518 h -1.9645 z m -0.2783,-10.5182 c 0,0.6216 0.5239,1.1778 1.2442,1.1778 0.7204,0 1.277,-0.5071 1.277,-1.1778 0,-0.6707 -0.5566,-1.1777 -1.277,-1.1777 -0.7203,0 -1.2442,0.5561 -1.2442,1.1777 z" fill="#ffffff" id="path18" />
    <path d="M 64.42085,34.2221 V 35.4 h -0.0328 c -0.5728,-0.9489 -1.6039,-1.3741 -2.7003,-1.3741 -2.4222,0 -3.8787,1.7993 -3.8787,4.1221 0,2.2247 1.5547,4.0241 3.9114,4.0241 0.9819,0 1.9966,-0.3763 2.5694,-1.1451 h 0.0327 v 0.5725 c 0,1.554 -0.5891,2.6337 -2.4876,2.6337 -1.0964,0 -1.9148,-0.409 -2.7003,-1.1288 l -1.1783,1.6031 c 1.1129,0.9815 2.4384,1.2923 3.8951,1.2923 3.0603,0 4.435,-1.7993 4.435,-4.6292 v -7.1485 z m -2.324,1.5704 c 1.4238,0 2.324,0.9487 2.324,2.3064 0,1.3087 -0.8838,2.3065 -2.3404,2.3065 -1.3256,0 -2.3075,-1.0305 -2.3075,-2.2738 0,-1.3904 0.9491,-2.3391 2.3239,-2.3391 z" fill="#ffffff" id="path20" />
    <path d="m 76.23495,38.835 v -0.5397 c 0,-2.7318 -1.4893,-4.2694 -3.6822,-4.2694 -2.3731,0 -4.2716,1.6521 -4.2716,4.1221 0,2.4701 1.8985,4.1222 4.2716,4.1222 1.2437,0 2.4057,-0.4417 3.3222,-1.5703 l -1.4074,-1.0633 c -0.4911,0.6052 -1.1294,1.0633 -2.1113,1.0633 -1.0965,0 -1.9803,-0.7034 -2.1111,-1.8649 z m -5.9898,-1.4722 c 0.1473,-1.1286 0.8674,-1.8647 2.0293,-1.8647 1.2275,0 1.9803,0.7197 1.9966,1.8647 z" fill="#ffffff" id="path22" />
    <path d="m 78.23525,42.0739 h 1.9639 v -4.2857 c 0,-1.047 0.5074,-1.9957 1.8003,-1.9957 1.3747,0 1.4402,1.4395 1.4402,2.3064 v 3.975 h 1.9638 v -4.9564 c 0,-1.6031 -0.7528,-3.0916 -2.864,-3.0916 -1.3093,0 -2.0457,0.6707 -2.4058,1.4558 h -0.0327 v -1.2596 h -1.8657 z" fill="#ffffff" id="path24" />
    <path d="m 88.50005,35.8908 v 3.5987 c 0,1.8485 0.491,2.7809 2.5694,2.7809 0.4583,0 1.1456,-0.0654 1.5548,-0.2617 v -1.6522 c -0.2456,0.18 -0.7201,0.2454 -1.0638,0.2454 -0.8674,0 -1.0965,-0.4907 -1.0965,-1.2759 v -3.4352 h 2.1603 v -1.6685 h -2.1603 v -2.2737 h -1.9639 v 2.2737 h -1.6202 v 1.6685 z" fill="#ffffff" id="path26" />
    <path d="m 101.04745,35.2199 c -0.753,-0.8342 -1.8495,-1.194 -2.8478,-1.194 -2.373,0 -4.2715,1.6521 -4.2715,4.1221 0,2.4701 1.8985,4.1222 4.2715,4.1222 0.6873,0 2.0298,-0.2944 2.8308,-1.0959 l -1.3088,-1.4068 c -0.3601,0.4743 -0.9165,0.7361 -1.522,0.7361 -1.4402,0 -2.3076,-1.1287 -2.3076,-2.3556 0,-1.2268 0.8674,-2.3555 2.3076,-2.3555 0.5237,0 1.0311,0.3108 1.4892,0.7852 z" fill="#ffffff" id="path28" />
    <path d="m 102.37945,42.0739 h 1.964 V 37.87 c 0,-0.4254 0.262,-1.9794 2.111,-1.9794 0.311,0 0.622,0.0654 0.949,0.1472 v -1.8974 c -0.228,-0.0655 -0.457,-0.1145 -0.703,-0.1145 -1.031,0 -1.899,0.5397 -2.325,1.4395 h -0.032 v -1.2433 h -1.964 z" fill="#ffffff" id="path30" />
    <path d="m 109.10945,42.0739 h 1.965 v -4.2857 c 0,-1.047 0.506,-1.9957 1.8,-1.9957 0.949,0 1.342,0.638 1.342,1.603 v 4.6784 h 1.964 v -4.253 c 0,-1.0143 0.458,-2.0284 1.685,-2.0284 1.163,0 1.457,0.8506 1.457,1.8321 v 4.4493 h 1.964 v -4.6784 c 0,-1.8811 -0.736,-3.3696 -2.832,-3.3696 -1.177,0 -2.012,0.4579 -2.585,1.4558 -0.41,-0.9815 -1.244,-1.4558 -2.455,-1.4558 -1.309,0 -2.062,0.687 -2.406,1.4231 h -0.032 v -1.2269 h -1.867 z" fill="#ffffff" id="path32" />
    <path d="m 123.59545,40.9293 c 0,0.7034 0.623,1.2432 1.31,1.2432 0.721,0 1.31,-0.5726 1.31,-1.2759 0,-0.7034 -0.606,-1.2433 -1.31,-1.2433 -0.72,0 -1.31,0.5726 -1.31,1.276 z" fill="#ffffff" id="path34" />
    <path d="m 135.32845,35.2199 c -0.753,-0.8342 -1.849,-1.194 -2.847,-1.194 -2.374,0 -4.272,1.6521 -4.272,4.1221 0,2.4701 1.898,4.1222 4.272,4.1222 0.687,0 2.028,-0.2944 2.83,-1.0959 l -1.308,-1.4068 c -0.361,0.4743 -0.917,0.7361 -1.522,0.7361 -1.441,0 -2.308,-1.1287 -2.308,-2.3556 0,-1.2268 0.867,-2.3555 2.308,-2.3555 0.523,0 1.03,0.3108 1.489,0.7852 z" fill="#ffffff" id="path36" />
    <path d="m 136.26745,38.148 c 0,2.4701 1.899,4.1222 4.272,4.1222 2.373,0 4.271,-1.6521 4.271,-4.1222 0,-2.47 -1.898,-4.1221 -4.271,-4.1221 -2.373,0 -4.272,1.6521 -4.272,4.1221 z m 1.965,0 c 0,-1.2268 0.867,-2.3555 2.307,-2.3555 1.44,0 2.308,1.1287 2.308,2.3555 0,1.2269 -0.868,2.3556 -2.308,2.3556 -1.44,0 -2.307,-1.1287 -2.307,-2.3556 z" fill="#ffffff" id="path38" />
    <path d="m 146.73145,42.0739 h 1.963 v -4.2857 c 0,-1.047 0.508,-1.9957 1.801,-1.9957 0.949,0 1.342,0.638 1.342,1.603 v 4.6784 h 1.964 v -4.253 c 0,-1.0143 0.458,-2.0284 1.686,-2.0284 1.161,0 1.456,0.8506 1.456,1.8321 v 4.4493 h 1.964 v -4.6784 c 0,-1.8811 -0.737,-3.3696 -2.831,-3.3696 -1.179,0 -2.013,0.4579 -2.587,1.4558 -0.408,-0.9815 -1.243,-1.4558 -2.454,-1.4558 -1.309,0 -2.062,0.687 -2.406,1.4231 h -0.033 v -1.2269 h -1.865 z" fill="#ffffff" id="path40" />
    <path d="M 5.26458,0.305664 H 15.80865 V 1.59871 h -1.9057 c -0.408,0 -0.7048,0.08342 -0.8903,0.25027 -0.1854,0.15758 -0.2782,0.39393 -0.2782,0.70909 V 18.4778 c 0,0.3708 0.0974,0.6349 0.2922,0.7925 0.2504,0.204 0.612,0.3059 1.085,0.3059 h 1.697 v 1.293 H 5.26458 v -1.293 H 6.8782 c 0.5564,0 0.9459,-0.0927 1.16847,-0.278 0.23184,-0.1855 0.34775,-0.4589 0.34775,-0.8204 V 2.73882 C 8.39442,2.34951 8.28778,2.06217 8.07448,1.87679 7.87047,1.69141 7.54589,1.59871 7.10076,1.59871 H 5.26458 Z" fill="#ffffff" id="path42" />
    <path d="m 19.34755,0.305664 h 6.3849 L 36.87455,14.4041 V 4.82437 c 0,-0.94545 -0.2688,-1.70088 -0.8068,-2.2663 -0.5378,-0.57469 -1.3029,-0.89448 -2.2952,-0.95936 V 0.305664 h 7.5117 V 1.59871 c -1.0479,0.11123 -1.7991,0.42638 -2.2536,0.94545 -0.4544,0.50981 -0.6815,1.26988 -0.6815,2.28021 V 20.8692 h -1.5997 L 24.06315,4.62972 V 15.8778 c 0,1.2884 0.2921,2.2293 0.8763,2.8225 0.5936,0.584 1.3261,0.8759 2.1979,0.8759 h 0.3478 v 1.293 h -8.3046 v -1.293 h 0.5704 c 0.816,0 1.5023,-0.3245 2.0587,-0.9733 0.5565,-0.6488 0.8346,-1.483 0.8346,-2.5027 V 2.80834 c -0.6213,-0.80642 -1.4142,-1.20963 -2.3787,-1.20963 h -0.918 z" fill="#ffffff" id="path44" />
    <path d="m 44.50325,0.305664 h 6.3849 L 62.03045,14.4041 V 4.82437 c 0,-0.94545 -0.269,-1.70088 -0.8068,-2.2663 -0.5379,-0.57469 -1.303,-0.89448 -2.2952,-0.95936 V 0.305664 h 7.5115 V 1.59871 c -1.0479,0.11123 -1.799,0.42638 -2.2534,0.94545 -0.4544,0.50981 -0.6816,1.26988 -0.6816,2.28021 V 20.8692 h -1.5997 L 49.21895,4.62972 V 15.8778 c 0,1.2884 0.2921,2.2293 0.8763,2.8225 0.5935,0.584 1.3262,0.8759 2.1979,0.8759 h 0.3477 v 1.293 h -8.3045 v -1.293 h 0.5703 c 0.8162,0 1.5024,-0.3245 2.0588,-0.9733 0.5564,-0.6488 0.8347,-1.483 0.8347,-2.5027 V 2.80834 c -0.6214,-0.80642 -1.4143,-1.20963 -2.3787,-1.20963 h -0.9182 z" fill="#ffffff" id="path46" />
    <path d="m 89.00895,2.50244 h 1.2519 v 5.35293 h 4.2984 v 1.5016 h -4.2984 v 8.27263 c 0,0.5469 0.1392,0.9734 0.4173,1.2792 0.2783,0.2966 0.6446,0.4449 1.099,0.4449 1.2983,0 1.9846,-1.2096 2.0588,-3.6289 h 1.2519 c -0.0278,1.2885 -0.2318,2.3266 -0.612,3.1145 -0.3803,0.7787 -0.9274,1.3812 -1.6415,1.8075 -0.7048,0.4264 -1.5024,0.6395 -2.3925,0.6395 -0.7791,0 -1.4561,-0.1575 -2.031,-0.4726 -0.5657,-0.3152 -1.0201,-0.7833 -1.3632,-1.4044 -0.3339,-0.6303 -0.5008,-1.3115 -0.5008,-2.0438 V 9.35697 h -2.3091 V 8.07784 c 1.4096,-0.18539 2.5085,-0.72763 3.2967,-1.62674 0.7883,-0.8991 1.2798,-2.21533 1.4745,-3.94866 z" fill="#ffffff" id="path48" />
    <path d="m 112.02245,14.4461 h -9.139 c 0.027,1.826 0.393,3.1748 1.098,4.046 0.714,0.862 1.628,1.2931 2.741,1.2931 0.798,0 1.553,-0.2224 2.267,-0.6674 0.714,-0.4449 1.447,-1.2513 2.198,-2.4192 l 1.015,0.6256 c -0.788,1.3904 -1.692,2.3868 -2.712,2.9893 -1.011,0.5933 -2.249,0.8898 -3.714,0.8898 -2.133,0 -3.858,-0.6488 -5.175,-1.9465 -1.3167,-1.2977 -1.9751,-2.9615 -1.9751,-4.9914 0,-2.0299 0.663,-3.7262 1.9891,-5.08875 1.326,-1.36256 2.953,-2.04384 4.883,-2.04384 1.335,0 2.48,0.27344 3.436,0.82032 0.964,0.54687 1.711,1.34866 2.239,2.40537 0.538,1.0474 0.821,2.41 0.849,4.0876 z m -9.139,-1.2513 h 4.354 c 0.407,0 0.699,-0.102 0.876,-0.3058 0.176,-0.2039 0.264,-0.5747 0.264,-1.1124 0,-1.0752 -0.245,-1.90476 -0.737,-2.48872 -0.492,-0.59322 -1.117,-0.88983 -1.878,-0.88983 -0.899,0 -1.591,0.39857 -2.073,1.19572 -0.473,0.79713 -0.742,1.99753 -0.806,3.60103 z" fill="#ffffff" id="path50" />
    <path d="M 115.97845,0.305882 122.07145,0 v 18.5058 c 0,0.3338 0.106,0.5979 0.32,0.7925 0.213,0.1855 0.519,0.2782 0.918,0.2782 h 0.82 v 1.293 h -7.831 v -1.293 h 0.89 c 0.409,0 0.71,-0.1066 0.904,-0.3199 0.204,-0.2224 0.307,-0.5561 0.307,-1.001 V 3.05882 c 0,-0.47273 -0.13,-0.83423 -0.39,-1.08449 -0.259,-0.25954 -0.612,-0.3893 -1.057,-0.3893 h -0.974 z" fill="#ffffff" id="path52" />
    <path d="M 136.16245,0.305882 142.25545,0 v 18.5058 c 0,0.3338 0.107,0.5979 0.319,0.7925 0.214,0.1855 0.52,0.2782 0.919,0.2782 h 0.821 v 1.293 h -7.832 v -1.293 h 0.891 c 0.407,0 0.709,-0.1066 0.904,-0.3199 0.204,-0.2224 0.305,-0.5561 0.305,-1.001 V 3.05882 c 0,-0.47273 -0.13,-0.83423 -0.389,-1.08449 -0.26,-0.25954 -0.612,-0.3893 -1.057,-0.3893 h -0.974 z" fill="#ffffff" id="path54" />
    <path d="m 150.35045,0.347656 c 0.622,0 1.156,0.22246 1.6,0.667374 0.445,0.43566 0.668,0.96863 0.668,1.59893 0,0.6303 -0.223,1.16792 -0.668,1.61283 -0.444,0.43565 -0.978,0.65348 -1.6,0.65348 -0.63,0 -1.168,-0.22246 -1.613,-0.66738 -0.445,-0.44492 -0.668,-0.97789 -0.668,-1.59893 0,-0.6303 0.223,-1.16327 0.668,-1.59893 0.445,-0.444914 0.983,-0.667374 1.613,-0.667374 z m -3.574,7.508004 5.786,-0.26416 V 18.645 c 0,0.2965 0.093,0.5283 0.279,0.6951 0.194,0.1576 0.486,0.2364 0.876,0.2364 h 0.876 v 1.2931 h -7.817 v -1.2931 h 0.862 c 0.464,0 0.789,-0.1066 0.974,-0.3198 0.195,-0.2131 0.292,-0.5839 0.292,-1.1123 v -7.5358 c 0,-0.4727 -0.139,-0.83886 -0.417,-1.09839 -0.27,-0.25955 -0.645,-0.38931 -1.127,-0.38931 h -0.584 z" fill="#ffffff" id="path56" />
    <path d="m 178.76845,7.85542 c 1.112,-1.32548 2.217,-1.98823 3.311,-1.98823 0.556,0 1.001,0.16221 1.335,0.48664 0.334,0.32441 0.5,0.74153 0.5,1.25133 0,0.45418 -0.129,0.82031 -0.389,1.09839 -0.25,0.2688 -0.57,0.4032 -0.96,0.4032 -0.547,0 -0.941,-0.29197 -1.182,-0.87593 -0.148,-0.35223 -0.325,-0.52833 -0.528,-0.52833 -0.261,0 -0.613,0.27343 -1.057,0.82031 1.001,1.01034 1.501,2.0763 1.501,3.1978 0,0.8714 -0.236,1.6592 -0.709,2.3637 -0.473,0.7044 -1.192,1.2652 -2.156,1.6823 -0.955,0.4172 -2.152,0.6257 -3.589,0.6257 l -1.488,-0.0278 c -1.104,0 -1.85,0.1112 -2.24,0.3337 -0.399,0.2225 -0.598,0.5097 -0.598,0.862 0,0.3059 0.125,0.533 0.376,0.6813 0.325,0.2039 0.844,0.3059 1.558,0.3059 l 1.28,-0.0418 c 1.381,-0.0741 2.396,-0.1112 3.046,-0.1112 2.16,0 3.663,0.3059 4.507,0.9177 0.844,0.6118 1.266,1.4599 1.266,2.5444 0,1.2976 -0.488,2.3404 -1.461,3.1283 -1.187,0.964 -3.26,1.4459 -6.218,1.4459 -2.523,0 -4.294,-0.2919 -5.313,-0.8758 -1.021,-0.584 -1.531,-1.2699 -1.531,-2.0578 0,-0.4912 0.218,-0.9223 0.654,-1.2931 0.435,-0.3707 1.359,-0.7183 2.768,-1.0427 -0.918,-0.1855 -1.608,-0.5006 -2.072,-0.9455 -0.464,-0.4448 -0.696,-1.0195 -0.696,-1.7241 0,-0.6396 0.172,-1.1817 0.515,-1.6267 0.352,-0.4449 0.978,-0.8389 1.878,-1.1818 -0.853,-0.4635 -1.498,-1.015 -1.934,-1.6546 -0.426,-0.6395 -0.64,-1.3671 -0.64,-2.1828 0,-0.8806 0.236,-1.6731 0.709,-2.37755 0.473,-0.71372 1.202,-1.27914 2.184,-1.69625 0.983,-0.42638 2.179,-0.63957 3.589,-0.63957 0.668,0 1.317,0.06025 1.948,0.18075 0.63,0.1205 1.242,0.30124 1.836,0.54224 z m -3.867,0.50054 c -0.64,0 -1.192,0.30124 -1.656,0.90374 -0.454,0.59322 -0.681,1.4506 -0.681,2.5722 0,1.0844 0.227,1.9141 0.681,2.4888 0.455,0.5747 1.012,0.862 1.67,0.862 0.649,0 1.205,-0.2966 1.669,-0.8898 0.464,-0.5933 0.695,-1.4275 0.695,-2.5027 0,-1.0845 -0.231,-1.928 -0.695,-2.5305 -0.464,-0.6025 -1.025,-0.90374 -1.683,-0.90374 z m 5.452,14.77964 c 0,-0.5469 -0.305,-0.9455 -0.917,-1.1957 -0.418,-0.1761 -1.345,-0.2641 -2.783,-0.2641 -2.597,0 -4.27,0.176 -5.021,0.5282 -0.752,0.3523 -1.126,0.7926 -1.126,1.3209 0,0.5005 0.292,0.9176 0.875,1.2514 0.584,0.3429 1.693,0.5143 3.325,0.5143 2.124,0 3.654,-0.2456 4.591,-0.7368 0.704,-0.38 1.056,-0.8528 1.056,-1.4182 z" fill="#ffffff" id="path58" />
    <path d="m 200.34845,14.4462 h -9.139 c 0.028,1.826 0.395,3.1747 1.1,4.0459 0.714,0.8621 1.627,1.2931 2.739,1.2931 0.798,0 1.554,-0.2225 2.268,-0.6674 0.714,-0.4449 1.447,-1.2513 2.198,-2.4193 l 1.015,0.6257 c -0.788,1.3904 -1.692,2.3868 -2.712,2.9893 -1.01,0.5932 -2.249,0.8899 -3.715,0.8899 -2.133,0 -3.857,-0.6488 -5.174,-1.9466 -1.316,-1.2977 -1.975,-2.9614 -1.975,-4.9914 0,-2.0299 0.663,-3.7262 1.989,-5.08875 1.327,-1.36256 2.954,-2.04384 4.883,-2.04384 1.335,0 2.48,0.27344 3.435,0.82032 0.965,0.54687 1.711,1.34865 2.24,2.40537 0.538,1.0474 0.821,2.41 0.848,4.0877 z m -9.139,-1.2513 h 4.354 c 0.409,0 0.701,-0.1021 0.877,-0.306 0.175,-0.2039 0.264,-0.5747 0.264,-1.1123 0,-1.0751 -0.246,-1.90476 -0.737,-2.48872 -0.492,-0.59322 -1.118,-0.88983 -1.878,-0.88983 -0.9,0 -1.59,0.39857 -2.073,1.19571 -0.473,0.79714 -0.741,1.99754 -0.807,3.60114 z" fill="#ffffff" id="path60" />
    <path d="m 222.02645,19.5765 v 1.2932 h -7.831 v -1.2932 h 0.82 c 0.437,0 0.76,-0.1112 0.974,-0.3336 0.213,-0.2224 0.32,-0.5469 0.32,-0.9733 v -5.6449 c 0,-0.9639 -0.222,-1.7009 -0.667,-2.2106 -0.437,-0.51915 -1.012,-0.77868 -1.726,-0.77868 -0.973,0 -1.766,0.36618 -2.378,1.09838 -0.612,0.723 -0.918,1.7843 -0.918,3.1839 v 4.3519 c 0,0.4264 0.107,0.7509 0.319,0.9733 0.223,0.2224 0.506,0.3336 0.849,0.3336 h 0.988 v 1.2932 h -8.124 v -1.2932 h 1.057 c 0.409,0 0.714,-0.1112 0.918,-0.3336 0.214,-0.2224 0.32,-0.5469 0.32,-0.9733 v -7.7443 c 0,-0.445 -0.153,-0.79718 -0.458,-1.05673 -0.298,-0.2688 -0.691,-0.4032 -1.183,-0.4032 h -0.556 V 7.85574 l 5.424,-0.29198 c 0.195,0.79715 0.344,1.74724 0.446,2.85034 0.76,-1.02895 1.572,-1.79828 2.434,-2.30809 0.862,-0.5098 1.771,-0.7647 2.727,-0.7647 1.298,0 2.323,0.43101 3.073,1.29304 0.743,0.86203 1.114,2.06235 1.114,3.60115 v 6.0341 c 0,0.4635 0.106,0.7972 0.32,1.0011 0.213,0.2039 0.551,0.3058 1.015,0.3058 z" fill="#ffffff" id="path62" />
    <path d="m 229.62745,2.50244 h 1.252 v 5.35293 h 4.298 v 1.5016 h -4.298 v 8.27273 c 0,0.5468 0.139,0.9732 0.417,1.2792 0.279,0.2965 0.645,0.4448 1.099,0.4448 1.299,0 1.985,-1.2096 2.059,-3.6289 h 1.252 c -0.027,1.2885 -0.232,2.3266 -0.612,3.1145 -0.38,0.7786 -0.927,1.3811 -1.641,1.8074 -0.705,0.4265 -1.503,0.6396 -2.393,0.6396 -0.779,0 -1.455,-0.1575 -2.031,-0.4726 -0.565,-0.3152 -1.02,-0.7834 -1.363,-1.4044 -0.334,-0.6303 -0.501,-1.3116 -0.501,-2.0438 V 9.35697 h -2.309 V 8.07784 c 1.41,-0.1854 2.508,-0.72763 3.297,-1.62674 0.789,-0.89911 1.28,-2.21533 1.474,-3.94866 z" fill="#ffffff" id="path64" />
    <path d="m 76.04925,14.2051 c 2.1759,0 3.9399,-1.7631 3.9399,-3.938 0,-2.17489 -1.764,-3.938 -3.9399,-3.938 -2.176,0 -3.9399,1.76311 -3.9399,3.938 0,2.1749 1.7639,3.938 3.9399,3.938 z" fill="#3aabcd" id="path66" />
    <path d="m 131.20745,14.2051 c 2.175,0 3.939,-1.7631 3.939,-3.938 0,-2.17489 -1.764,-3.938 -3.939,-3.938 -2.176,0 -3.94,1.76311 -3.94,3.938 0,2.1749 1.764,3.938 3.94,3.938 z" fill="#3aabcd" id="path68" />
    <path d="m 160.90845,14.2051 c 2.176,0 3.94,-1.7631 3.94,-3.938 0,-2.17489 -1.764,-3.938 -3.94,-3.938 -2.176,0 -3.94,1.76311 -3.94,3.938 0,2.1749 1.764,3.938 3.94,3.938 z" fill="#3aabcd" id="path70" />
</svg>
