<svg xmlns="http://www.w3.org/2000/svg" width="322" height="72" viewBox="0 0 422 82" fill="none" xmlns:v="https://vecta.io/nano"><path stroke="#6dbbd1" stroke-width="2" stroke-linecap="round" d="M1 47.002h420"/><path d="M9.595 75.002h3.497V61.005H9.595v13.997zM9.1 56.252c0 1.108.933 2.099 2.215 2.099s2.273-.904 2.273-2.099-.991-2.099-2.273-2.099-2.215.991-2.215 2.099zm8.298 18.75h3.497v-7.64c0-1.866.903-3.558 3.206-3.558 2.448 0 2.564 2.566 2.564 4.112v7.086h3.497v-8.835c0-2.858-1.34-5.511-5.1-5.511-2.331 0-3.643 1.196-4.284 2.595h-.058v-2.245h-3.322v13.997zm17.024 0h3.497v-7.64c0-1.866.903-3.558 3.206-3.558 2.448 0 2.564 2.566 2.564 4.112v7.086h3.497v-8.835c0-2.858-1.34-5.511-5.1-5.511-2.331 0-3.642 1.196-4.284 2.595h-.058v-2.245h-3.322v13.997zM52.7 63.979v6.415c0 3.295.874 4.957 4.575 4.957.816 0 2.04-.117 2.768-.467V71.94c-.437.321-1.282.437-1.894.437-1.544 0-1.952-.875-1.952-2.275v-6.123h3.847v-2.974h-3.847v-4.053H52.7v4.053h-2.885v2.974H52.7zm23.827 5.249v-.962c0-4.87-2.652-7.611-6.557-7.611-4.225 0-7.606 2.945-7.606 7.348s3.38 7.348 7.606 7.348c2.215 0 4.284-.787 5.915-2.799l-2.506-1.895c-.874 1.079-2.011 1.895-3.759 1.895-1.952 0-3.526-1.254-3.759-3.324h10.665zm-10.665-2.624c.262-2.012 1.544-3.324 3.614-3.324 2.186 0 3.526 1.283 3.555 3.324h-7.169zm14.285 8.398h3.497V52.957h-3.497v22.045zm7.861 0h3.497V52.957h-3.497v22.045zm7.861 0h3.497V61.005h-3.497v13.997zm-.495-18.75c0 1.108.932 2.099 2.215 2.099s2.273-.904 2.273-2.099-.991-2.099-2.273-2.099-2.215.991-2.215 2.099zm19.372 4.753v2.099h-.059c-1.02-1.691-2.855-2.449-4.808-2.449-4.313 0-6.906 3.208-6.906 7.348 0 3.966 2.768 7.173 6.964 7.173 1.749 0 3.556-.671 4.576-2.041h.058v1.021c0 2.77-1.049 4.695-4.43 4.695-1.952 0-3.409-.729-4.808-2.012l-2.098 2.858c1.982 1.749 4.342 2.304 6.936 2.304 5.449 0 7.897-3.208 7.897-8.252V61.005h-3.322zm-4.138 2.799c2.535 0 4.138 1.691 4.138 4.112 0 2.333-1.574 4.112-4.167 4.112-2.361 0-4.109-1.837-4.109-4.053 0-2.479 1.69-4.17 4.138-4.17zm25.174 5.424v-.962c0-4.87-2.652-7.611-6.557-7.611-4.225 0-7.606 2.945-7.606 7.348s3.381 7.348 7.606 7.348c2.215 0 4.284-.787 5.916-2.799l-2.506-1.895c-.875 1.079-2.011 1.895-3.76 1.895-1.952 0-3.526-1.254-3.759-3.324h10.666zm-10.666-2.624c.263-2.012 1.545-3.324 3.614-3.324 2.185 0 3.526 1.283 3.555 3.324h-7.169zm14.227 8.398h3.497v-7.64c0-1.866.904-3.558 3.206-3.558 2.447 0 2.564 2.566 2.564 4.112v7.086h3.497v-8.835c0-2.858-1.341-5.511-5.1-5.511-2.331 0-3.642 1.196-4.283 2.595h-.059v-2.245h-3.322v13.997zm18.278-11.023v6.415c0 3.295.874 4.957 4.575 4.957.816 0 2.04-.117 2.768-.467V71.94c-.437.321-1.282.437-1.894.437-1.544 0-1.952-.875-1.952-2.275v-6.123h3.846v-2.974h-3.846v-4.053h-3.497v4.053h-2.885v2.974h2.885zm22.341-1.195c-1.34-1.487-3.293-2.129-5.07-2.129-4.226 0-7.606 2.945-7.606 7.348s3.38 7.348 7.606 7.348c1.224 0 3.613-.525 5.041-1.954l-2.331-2.508c-.641.846-1.632 1.312-2.71 1.312-2.565 0-4.109-2.012-4.109-4.199s1.544-4.199 4.109-4.199c.932 0 1.836.554 2.652 1.4l2.418-2.42zm2.373 12.218h3.497v-7.494c0-.758.466-3.528 3.759-3.528.554 0 1.107.117 1.69.262V60.86c-.408-.117-.816-.204-1.253-.204-1.836 0-3.38.962-4.138 2.566h-.058v-2.216h-3.497v13.997zm11.984 0h3.497v-7.64c0-1.866.903-3.558 3.205-3.558 1.691 0 2.39 1.137 2.39 2.858v8.34h3.497V67.42c0-1.808.816-3.616 3.001-3.616 2.069 0 2.594 1.516 2.594 3.266v7.932H216v-8.34c0-3.353-1.312-6.007-5.042-6.007-2.098 0-3.584.817-4.604 2.595-.728-1.75-2.215-2.595-4.371-2.595-2.331 0-3.672 1.225-4.284 2.537h-.058v-2.187h-3.322v13.997zm25.793-2.041c0 1.254 1.107 2.216 2.331 2.216 1.282 0 2.331-1.021 2.331-2.274s-1.078-2.216-2.331-2.216c-1.282 0-2.331 1.021-2.331 2.274zm20.891-10.177c-1.341-1.487-3.293-2.129-5.071-2.129-4.225 0-7.605 2.945-7.605 7.348s3.38 7.348 7.605 7.348c1.224 0 3.614-.525 5.042-1.954l-2.332-2.508c-.641.846-1.631 1.312-2.71 1.312-2.564 0-4.108-2.012-4.108-4.199s1.544-4.199 4.108-4.199c.933 0 1.836.554 2.652 1.4l2.419-2.42zm1.673 5.219c0 4.403 3.38 7.348 7.606 7.348s7.606-2.945 7.606-7.348-3.381-7.348-7.606-7.348-7.606 2.945-7.606 7.348zm3.497 0c0-2.187 1.544-4.199 4.109-4.199s4.109 2.012 4.109 4.199-1.545 4.199-4.109 4.199-4.109-2.012-4.109-4.199zm15.134 6.999h3.497v-7.64c0-1.866.903-3.558 3.206-3.558 1.69 0 2.389 1.137 2.389 2.858v8.34h3.497V67.42c0-1.808.816-3.616 3.001-3.616 2.069 0 2.594 1.516 2.594 3.266v7.932h3.497v-8.34c0-3.353-1.311-6.007-5.041-6.007-2.099 0-3.585.817-4.605 2.595-.728-1.75-2.214-2.595-4.371-2.595-2.331 0-3.671 1.225-4.283 2.537h-.059v-2.187h-3.322v13.997zM9.413.545h18.775V2.85h-3.393c-.727 0-1.255.149-1.585.446-.33.281-.495.702-.495 1.264v28.379c0 .661.173 1.132.52 1.413.446.364 1.09.545 1.932.545h3.022v2.305H9.413v-2.305h2.873c.991 0 1.684-.165 2.081-.496.413-.331.619-.818.619-1.462V4.883c0-.694-.19-1.206-.57-1.537-.363-.33-.941-.496-1.734-.496H9.413V.545zm25.076 0h11.369l19.84 25.132V8.6c0-1.685-.479-3.032-1.437-4.04-.958-1.024-2.32-1.594-4.087-1.71V.545h13.375V2.85c-1.866.198-3.203.76-4.012 1.685-.809.909-1.214 2.264-1.214 4.065v28.602h-2.848L42.885 8.253v20.051c0 2.297.52 3.974 1.56 5.031 1.057 1.041 2.361 1.561 3.913 1.561h.619v2.305H34.192v-2.305h1.015c1.453 0 2.675-.578 3.666-1.735s1.486-2.644 1.486-4.461V5.007c-1.106-1.438-2.518-2.156-4.235-2.156h-1.635V.545zm44.792 0H90.65l19.84 25.132V8.6c0-1.685-.479-3.032-1.436-4.04-.958-1.024-2.32-1.594-4.087-1.71V.545h13.375V2.85c-1.866.198-3.204.76-4.013 1.685-.809.909-1.213 2.264-1.213 4.065v28.602h-2.849L87.677 8.253v20.051c0 2.297.52 3.974 1.56 5.031 1.057 1.041 2.361 1.561 3.913 1.561h.619v2.305H78.983v-2.305h1.016c1.453 0 2.675-.578 3.666-1.735s1.486-2.644 1.486-4.461V5.007c-1.106-1.438-2.518-2.156-4.236-2.156H79.28V.545zm79.245 3.916h2.23v9.542h7.653v2.677h-7.653v14.747c0 .975.247 1.735.743 2.28.495.529 1.147.793 1.956.793 2.312 0 3.534-2.156 3.666-6.469h2.229c-.049 2.297-.412 4.147-1.089 5.552-.677 1.388-1.652 2.462-2.923 3.222-1.255.76-2.675 1.14-4.26 1.14-1.387 0-2.593-.281-3.617-.843-1.007-.562-1.816-1.396-2.427-2.503-.594-1.124-.892-2.338-.892-3.643V16.68h-4.111V14.4c2.51-.331 4.466-1.297 5.87-2.9s2.279-3.949 2.625-7.039zm40.978 21.291h-16.273c.049 3.255.702 5.659 1.956 7.212 1.272 1.537 2.898 2.305 4.88 2.305 1.42 0 2.766-.397 4.037-1.19s2.576-2.231 3.914-4.313l1.808 1.115c-1.404 2.478-3.014 4.255-4.83 5.329-1.8 1.057-4.004 1.586-6.613 1.586-3.798 0-6.87-1.157-9.214-3.47s-3.517-5.279-3.517-8.898 1.18-6.642 3.541-9.071 5.26-3.643 8.694-3.643c2.378 0 4.417.487 6.118 1.462 1.717.975 3.047 2.404 3.988 4.288.958 1.867 1.461 4.296 1.511 7.287zm-16.273-2.231h7.752c.727 0 1.247-.182 1.561-.545s.47-1.024.47-1.983c0-1.917-.437-3.395-1.312-4.436-.876-1.058-1.99-1.586-3.344-1.586-1.602 0-2.832.71-3.691 2.132-.842 1.421-1.321 3.561-1.436 6.419zM206.548.545L217.397 0v32.989c0 .595.19 1.066.569 1.413.38.331.925.496 1.635.496h1.461v2.305h-13.944v-2.305h1.585c.726 0 1.263-.19 1.61-.57.363-.397.545-.991.545-1.785V5.453c0-.843-.231-1.487-.694-1.933-.462-.463-1.09-.694-1.882-.694h-1.734V.545zm35.941 0L253.337 0v32.989c0 .595.19 1.066.57 1.413.38.331.925.496 1.635.496h1.461v2.305h-13.945v-2.305h1.585c.727 0 1.264-.19 1.61-.57.364-.397.545-.991.545-1.785V5.453c0-.843-.231-1.487-.693-1.933-.463-.463-1.09-.694-1.883-.694h-1.733V.545zm25.264.075c1.106 0 2.055.397 2.848 1.19.793.777 1.189 1.727 1.189 2.85s-.396 2.082-1.189 2.875c-.793.777-1.742 1.165-2.848 1.165-1.123 0-2.081-.397-2.874-1.19a3.89 3.89 0 0 1-1.188-2.85c0-1.124.396-2.074 1.188-2.85.793-.793 1.751-1.19 2.874-1.19zm-6.366 13.384l10.304-.471v19.704c0 .529.165.942.495 1.239.347.281.867.421 1.561.421h1.56v2.305h-13.92v-2.305h1.536c.825 0 1.403-.19 1.734-.57.346-.38.52-1.041.52-1.983V18.911c0-.843-.248-1.495-.743-1.958-.479-.463-1.148-.694-2.007-.694h-1.04v-2.255zm56.965 0c1.981-2.363 3.946-3.544 5.895-3.544.991 0 1.783.289 2.378.868s.891 1.322.891 2.231c0 .81-.231 1.462-.693 1.958-.446.479-1.016.719-1.709.719-.975 0-1.676-.521-2.106-1.562-.264-.628-.578-.942-.941-.942-.462 0-1.09.487-1.882 1.462 1.783 1.801 2.675 3.701 2.675 5.701 0 1.553-.421 2.958-1.263 4.214s-2.122 2.255-3.84 2.999c-1.7.744-3.831 1.115-6.39 1.115l-2.65-.05c-1.965 0-3.294.198-3.988.595-.71.397-1.065.909-1.065 1.537 0 .545.223.95.669 1.215.578.364 1.502.545 2.774.545l2.279-.074 5.424-.198c3.847 0 6.522.545 8.025 1.636s2.254 2.602 2.254 4.536c0 2.313-.867 4.172-2.601 5.577-2.113 1.718-5.804 2.578-11.071 2.578-4.492 0-7.646-.52-9.462-1.561s-2.725-2.264-2.725-3.668c0-.876.388-1.644 1.164-2.305s2.42-1.281 4.929-1.859c-1.634-.331-2.864-.892-3.69-1.685s-1.239-1.817-1.239-3.073c0-1.14.306-2.107.917-2.9.627-.793 1.742-1.495 3.344-2.107-1.519-.826-2.667-1.809-3.443-2.949-.76-1.14-1.14-2.437-1.14-3.891 0-1.57.422-2.982 1.264-4.238.842-1.272 2.138-2.28 3.888-3.024 1.751-.76 3.881-1.14 6.391-1.14a18.41 18.41 0 0 1 3.467.322c1.123.215 2.213.537 3.27.967zm-6.886.892c-1.139 0-2.122.537-2.947 1.611-.809 1.058-1.214 2.586-1.214 4.585 0 1.933.405 3.412 1.214 4.437s1.799 1.537 2.972 1.537c1.156 0 2.146-.529 2.972-1.586s1.239-2.544 1.239-4.461c0-1.933-.413-3.437-1.239-4.511s-1.825-1.611-2.997-1.611zm9.709 26.346c0-.975-.544-1.685-1.634-2.131-.743-.314-2.395-.471-4.954-.471-4.624 0-7.604.314-8.942.942s-2.006 1.413-2.006 2.355c0 .892.52 1.636 1.561 2.231 1.04.611 3.013.917 5.919.917 3.782 0 6.506-.438 8.174-1.314 1.255-.678 1.882-1.52 1.882-2.528zm35.603-15.49h-16.273c.049 3.255.702 5.659 1.957 7.212 1.271 1.537 2.898 2.305 4.879 2.305 1.42 0 2.766-.397 4.037-1.19s2.576-2.231 3.914-4.313l1.808 1.115c-1.404 2.478-3.014 4.255-4.83 5.329-1.8 1.057-4.004 1.586-6.613 1.586-3.798 0-6.869-1.157-9.214-3.47s-3.517-5.279-3.517-8.898 1.18-6.642 3.542-9.071 5.259-3.643 8.693-3.643c2.378 0 4.418.487 6.118 1.462 1.718.975 3.047 2.404 3.988 4.288.958 1.867 1.461 4.296 1.511 7.287zm-16.273-2.231h7.753c.726 0 1.246-.182 1.56-.545s.471-1.024.471-1.983c0-1.917-.438-3.395-1.313-4.436-.875-1.058-1.99-1.586-3.344-1.586-1.602 0-2.832.71-3.69 2.132-.843 1.421-1.321 3.561-1.437 6.419zm54.873 11.376v2.305h-13.945v-2.305h1.461c.776 0 1.354-.198 1.734-.595s.57-.975.57-1.735V22.505c0-1.718-.397-3.032-1.189-3.941-.776-.925-1.8-1.388-3.072-1.388-1.733 0-3.145.653-4.235 1.958-1.09 1.289-1.635 3.181-1.635 5.676v7.758c0 .76.19 1.338.57 1.735.396.396.9.595 1.511.595h1.758v2.305h-14.465v-2.305h1.883c.726 0 1.271-.198 1.635-.595.379-.397.569-.975.569-1.735V18.762c0-.793-.272-1.421-.817-1.884-.528-.479-1.23-.719-2.105-.719h-.991v-2.156l9.66-.521c.346 1.421.611 3.115.792 5.081 1.354-1.834 2.799-3.206 4.335-4.114s3.154-1.363 4.854-1.363c2.312 0 4.137.768 5.474 2.305 1.321 1.537 1.982 3.676 1.982 6.419v10.757c0 .826.19 1.421.569 1.784s.983.545 1.809.545h1.288zm13.533-30.436h2.229v9.542h7.654v2.677h-7.654v14.747c0 .975.248 1.735.743 2.28.496.529 1.148.793 1.957.793 2.312 0 3.534-2.156 3.666-6.469h2.229c-.049 2.297-.413 4.147-1.09 5.552-.677 1.388-1.651 2.462-2.922 3.222-1.255.76-2.675 1.14-4.261 1.14-1.387 0-2.592-.281-3.616-.843-1.007-.562-1.816-1.396-2.427-2.503-.595-1.124-.892-2.338-.892-3.643V16.68h-4.111V14.4c2.509-.331 4.466-1.297 5.87-2.9s2.278-3.949 2.625-7.039z" fill="#fff"/><g fill="#6dbbd1"><ellipse cx="135.45" cy="18.302" rx="7.015" ry="7.02"/><ellipse cx="233.665" cy="18.302" rx="7.015" ry="7.02"/><ellipse cx="286.55" cy="18.302" rx="7.015" ry="7.02"/></g></svg>