<svg width="320" height="64" viewBox="0 0 320 64" fill="none" xmlns="http://www.w3.org/2000/svg">
<path d="M1.37891 36.0427H318.62" stroke="#6DBBD1" stroke-width="2" stroke-linecap="round"/>
<path d="M7.27617 58.5381H9.92869V47.6139H7.27617V58.5381ZM6.90039 43.9042C6.90039 44.769 7.60774 45.5429 8.58033 45.5429C9.55292 45.5429 10.3045 44.8373 10.3045 43.9042C10.3045 42.971 9.55292 42.2656 8.58033 42.2656C7.60774 42.2656 6.90039 43.0393 6.90039 43.9042Z" fill="white"/>
<path d="M13.1924 58.5376H15.8441V52.5748C15.8441 51.1182 16.529 49.7982 18.2747 49.7982C20.1308 49.7982 20.2193 51.801 20.2193 53.0072V58.5376H22.871V51.6417C22.871 49.4114 21.8544 47.3403 19.0039 47.3403C17.2362 47.3403 16.2417 48.2735 15.7557 49.3659H15.7115V47.6134H13.1924V58.5376Z" fill="white"/>
<path d="M26.1025 58.5376H28.7541V52.5748C28.7541 51.1182 29.4392 49.7982 31.1849 49.7982C33.041 49.7982 33.1294 51.801 33.1294 53.0072V58.5376H35.781V51.6417C35.781 49.4114 34.7646 47.3403 31.9141 47.3403C30.1463 47.3403 29.1519 48.2735 28.6657 49.3659H28.6216V47.6134H26.1025V58.5376Z" fill="white"/>
<path d="M39.962 49.9351V54.942C39.962 57.5139 40.6249 58.8111 43.4312 58.8111C44.05 58.8111 44.9781 58.72 45.5306 58.447V56.1482C45.1991 56.3987 44.5583 56.4897 44.0941 56.4897C42.923 56.4897 42.6137 55.8069 42.6137 54.7145V49.9351H45.5306V47.6138H42.6137V44.4503H39.962V47.6138H37.7744V49.9351H39.962Z" fill="white"/>
<path d="M58.0303 54.0313V53.2804C58.0303 49.4796 56.0194 47.3403 53.0585 47.3403C49.8543 47.3403 47.291 49.6389 47.291 53.0755C47.291 56.5121 49.8543 58.8107 53.0585 58.8107C54.7378 58.8107 56.3067 58.1962 57.5441 56.6259L55.6438 55.1465C54.9809 55.9886 54.1191 56.6259 52.7932 56.6259C51.3128 56.6259 50.1196 55.6473 49.9427 54.0313H58.0303ZM49.9427 51.983C50.1416 50.4128 51.1139 49.3886 52.6827 49.3886C54.3401 49.3886 55.3565 50.39 55.3786 51.983H49.9427Z" fill="white"/>
<path d="M60.7744 58.5378H63.427V41.3322H60.7744V58.5378Z" fill="white"/>
<path d="M66.7363 58.5379H69.3889V41.3323H66.7363V58.5379Z" fill="white"/>
<path d="M72.6971 58.5381H75.3496V47.6139H72.6971V58.5381ZM72.3213 43.9042C72.3213 44.769 73.0287 45.5429 74.0013 45.5429C74.9739 45.5429 75.7254 44.8373 75.7254 43.9042C75.7254 42.971 74.9739 42.2656 74.0013 42.2656C73.0287 42.2656 72.3213 43.0393 72.3213 43.9042Z" fill="white"/>
<path d="M87.0103 47.6134V49.2521H86.966C86.1927 47.932 84.8005 47.3403 83.3201 47.3403C80.0496 47.3403 78.083 49.8437 78.083 53.0754C78.083 56.1706 80.1822 58.6742 83.3642 58.6742C84.69 58.6742 86.0601 58.1507 86.8335 57.081H86.8776V57.8776C86.8776 60.0396 86.0822 61.5418 83.5189 61.5418C82.0385 61.5418 80.9335 60.9728 79.8729 59.9714L78.2819 62.2017C79.7845 63.5673 81.5743 63.9997 83.5411 63.9997C87.6732 63.9997 89.5294 61.4963 89.5294 57.559V47.6134H87.0103ZM83.8725 49.7982C85.7949 49.7982 87.0103 51.1182 87.0103 53.0072C87.0103 54.8279 85.8171 56.2161 83.8503 56.2161C82.0605 56.2161 80.7347 54.7824 80.7347 53.0527C80.7347 51.1182 82.0162 49.7982 83.8725 49.7982Z" fill="white"/>
<path d="M102.962 54.0313V53.2804C102.962 49.4796 100.951 47.3403 97.9901 47.3403C94.786 47.3403 92.2227 49.6389 92.2227 53.0755C92.2227 56.5121 94.786 58.8107 97.9901 58.8107C99.6694 58.8107 101.238 58.1962 102.476 56.6259L100.576 55.1465C99.9125 55.9886 99.0507 56.6259 97.7249 56.6259C96.2443 56.6259 95.0511 55.6473 94.8744 54.0313H102.962ZM94.8744 51.983C95.0733 50.4128 96.0456 49.3886 97.6144 49.3886C99.2718 49.3886 100.288 50.39 100.31 51.983H94.8744Z" fill="white"/>
<path d="M105.663 58.5376H108.315V52.5748C108.315 51.1182 109 49.7982 110.745 49.7982C112.602 49.7982 112.69 51.801 112.69 53.0072V58.5376H115.342V51.6417C115.342 49.4114 114.325 47.3403 111.475 47.3403C109.707 47.3403 108.712 48.2735 108.226 49.3659H108.182V47.6134H105.663V58.5376Z" fill="white"/>
<path d="M119.523 49.9351V54.942C119.523 57.5139 120.185 58.8111 122.992 58.8111C123.611 58.8111 124.539 58.72 125.091 58.447V56.1482C124.76 56.3987 124.119 56.4897 123.655 56.4897C122.484 56.4897 122.174 55.8069 122.174 54.7145V49.9351H125.091V47.6138H122.174V44.4503H119.523V47.6138H117.335V49.9351H119.523Z" fill="white"/>
<path d="M136.464 49.0016C135.447 47.841 133.967 47.3403 132.619 47.3403C129.415 47.3403 126.852 49.6389 126.852 53.0755C126.852 56.5121 129.415 58.8107 132.619 58.8107C133.547 58.8107 135.359 58.4011 136.442 57.2859L134.674 55.3287C134.188 55.9886 133.437 56.3528 132.619 56.3528C130.674 56.3528 129.503 54.7824 129.503 53.0755C129.503 51.3686 130.674 49.7982 132.619 49.7982C133.326 49.7982 134.011 50.2307 134.63 50.8906L136.464 49.0016Z" fill="white"/>
<path d="M138.264 58.5376H140.915V52.6886C140.915 52.0968 141.269 49.9348 143.766 49.9348C144.185 49.9348 144.606 50.0258 145.047 50.1396V47.4996C144.738 47.4086 144.429 47.3403 144.097 47.3403C142.705 47.3403 141.534 48.0913 140.959 49.3431H140.915V47.6134H138.264V58.5376Z" fill="white"/>
<path d="M147.351 58.5376H150.003V52.5748C150.003 51.1182 150.687 49.7982 152.433 49.7982C153.715 49.7982 154.246 50.6858 154.246 52.0286V58.5376H156.897V52.6203C156.897 51.2092 157.516 49.7982 159.173 49.7982C160.742 49.7982 161.14 50.9817 161.14 52.3473V58.5376H163.792V52.0286C163.792 49.4114 162.797 47.3403 159.969 47.3403C158.378 47.3403 157.251 47.9775 156.477 49.3659C155.924 48.0002 154.797 47.3403 153.163 47.3403C151.395 47.3403 150.378 48.2962 149.915 49.3204H149.871V47.6134H147.351V58.5376Z" fill="white"/>
<path d="M166.909 56.945C166.909 57.9237 167.749 58.6747 168.678 58.6747C169.651 58.6747 170.447 57.8781 170.447 56.8995C170.447 55.9209 169.629 55.1698 168.678 55.1698C167.705 55.1698 166.909 55.9664 166.909 56.945Z" fill="white"/>
<path d="M182.751 49.0016C181.734 47.841 180.254 47.3403 178.907 47.3403C175.702 47.3403 173.14 49.6389 173.14 53.0755C173.14 56.5121 175.702 58.8107 178.907 58.8107C179.835 58.8107 181.646 58.4011 182.729 57.2859L180.962 55.3287C180.475 55.9886 179.724 56.3528 178.907 56.3528C176.962 56.3528 175.791 54.7824 175.791 53.0755C175.791 51.3686 176.962 49.7982 178.907 49.7982C179.613 49.7982 180.298 50.2307 180.918 50.8906L182.751 49.0016Z" fill="white"/>
<path d="M184.019 53.0755C184.019 56.5121 186.583 58.8107 189.787 58.8107C192.991 58.8107 195.554 56.5121 195.554 53.0755C195.554 49.6389 192.991 47.3403 189.787 47.3403C186.583 47.3403 184.019 49.6389 184.019 53.0755ZM186.671 53.0755C186.671 51.3686 187.842 49.7982 189.787 49.7982C191.73 49.7982 192.903 51.3686 192.903 53.0755C192.903 54.7824 191.73 56.3528 189.787 56.3528C187.842 56.3528 186.671 54.7824 186.671 53.0755Z" fill="white"/>
<path d="M198.147 58.5376H200.798V52.5748C200.798 51.1182 201.484 49.7982 203.23 49.7982C204.512 49.7982 205.041 50.6858 205.041 52.0286V58.5376H207.694V52.6203C207.694 51.2092 208.312 49.7982 209.97 49.7982C211.538 49.7982 211.936 50.9817 211.936 52.3473V58.5376H214.587V52.0286C214.587 49.4114 213.593 47.3403 210.765 47.3403C209.174 47.3403 208.047 47.9775 207.273 49.3659C206.721 48.0002 205.594 47.3403 203.958 47.3403C202.192 47.3403 201.175 48.2962 200.71 49.3204H200.666V47.6134H198.147V58.5376Z" fill="white"/>
<path d="M7.1377 0.425293H21.3744V2.22431H18.8013C18.2504 2.22431 17.8497 2.34038 17.5992 2.57252C17.3489 2.79175 17.2236 3.1206 17.2236 3.55907V25.7083C17.2236 26.2241 17.3551 26.5916 17.6181 26.8109C17.9562 27.0947 18.4444 27.2365 19.0831 27.2365H21.3744V29.0354H7.1377V27.2365H9.31641C10.0677 27.2365 10.5936 27.1075 10.8941 26.8496C11.2071 26.5916 11.3636 26.2112 11.3636 25.7083V3.81055C11.3636 3.26891 11.2197 2.86912 10.9317 2.6112C10.6562 2.35328 10.2179 2.22431 9.61692 2.22431H7.1377V0.425293Z" fill="white"/>
<path d="M26.1521 0.425293H34.7731L49.8174 20.0405V6.71219C49.8174 5.39678 49.4544 4.34574 48.728 3.55907C48.0018 2.75951 46.9688 2.31458 45.629 2.22431V0.425293H55.7713V2.22431C54.3564 2.37907 53.3422 2.81754 52.7286 3.53973C52.115 4.24902 51.8083 5.30651 51.8083 6.71219V29.0354H49.6484L32.5192 6.44137V22.0909C32.5192 23.8834 32.9137 25.1925 33.7025 26.0178C34.5039 26.8303 35.493 27.2365 36.6701 27.2365H37.1396V29.0354H25.9268V27.2365H26.6968C27.7986 27.2365 28.7252 26.7851 29.4766 25.8824C30.2279 24.9797 30.6034 23.819 30.6034 22.4003V3.90727C29.7646 2.78529 28.6939 2.22431 27.3917 2.22431H26.1521V0.425293Z" fill="white"/>
<path d="M60.118 0.425293H68.7389L83.7833 20.0405V6.71219C83.7833 5.39678 83.4202 4.34574 82.694 3.55907C81.9678 2.75951 80.9347 2.31458 79.5949 2.22431V0.425293H89.7371V2.22431C88.3222 2.37907 87.308 2.81754 86.6945 3.53973C86.081 4.24902 85.7742 5.30651 85.7742 6.71219V29.0354H83.6142L66.4851 6.44137V22.0909C66.4851 23.8834 66.8795 25.1925 67.6683 26.0178C68.4697 26.8303 69.4589 27.2365 70.6359 27.2365H71.1054V29.0354H59.8926V27.2365H60.6626C61.7646 27.2365 62.6912 26.7851 63.4424 25.8824C64.1937 24.9797 64.5694 23.819 64.5694 22.4003V3.90727C63.7304 2.78529 62.6599 2.22431 61.3577 2.22431H60.118V0.425293Z" fill="white"/>
<path d="M120.21 3.48169H121.9V10.9292H127.704V13.0184H121.9V24.5282C121.9 25.2891 122.088 25.8825 122.464 26.308C122.839 26.7206 123.334 26.9269 123.947 26.9269C125.7 26.9269 126.627 25.244 126.727 21.878H128.417C128.38 23.6708 128.105 25.115 127.591 26.2113C127.078 27.2946 126.339 28.1328 125.375 28.7261C124.423 29.3193 123.346 29.6158 122.144 29.6158C121.093 29.6158 120.178 29.3966 119.402 28.9582C118.638 28.5197 118.025 27.8685 117.562 27.0043C117.111 26.1274 116.885 25.1796 116.885 24.1607V13.0184H113.768V11.2388C115.671 10.9808 117.155 10.2264 118.219 8.97548C119.283 7.72455 119.947 5.89328 120.21 3.48169Z" fill="white"/>
<path d="M151.282 20.099H138.943C138.98 22.6395 139.474 24.516 140.426 25.7282C141.39 26.9275 142.624 27.5273 144.126 27.5273C145.204 27.5273 146.223 27.2178 147.187 26.5987C148.151 25.9798 149.142 24.8578 150.155 23.2329L151.527 24.1033C150.462 26.0378 149.241 27.424 147.864 28.2623C146.499 29.0878 144.827 29.5003 142.849 29.5003C139.969 29.5003 137.64 28.5977 135.862 26.7921C134.084 24.9866 133.195 22.6718 133.195 19.8476C133.195 17.0233 134.09 14.6633 135.881 12.7676C137.672 10.8718 139.869 9.92395 142.474 9.92395C144.277 9.92395 145.823 10.3044 147.113 11.0653C148.415 11.8261 149.423 12.9417 150.136 14.4118C150.863 15.8691 151.245 17.7649 151.282 20.099ZM138.943 18.3581H144.822C145.372 18.3581 145.766 18.2161 146.005 17.9326C146.242 17.6488 146.361 17.133 146.361 16.3849C146.361 14.889 146.03 13.7348 145.366 12.9223C144.702 12.0969 143.858 11.6843 142.83 11.6843C141.616 11.6843 140.682 12.2388 140.031 13.3479C139.393 14.4569 139.03 16.127 138.943 18.3581Z" fill="white"/>
<path d="M156.625 0.425574L164.851 0V25.7472C164.851 26.2116 164.995 26.5791 165.283 26.8498C165.571 27.1078 165.984 27.2368 166.523 27.2368H167.631V29.0358H157.057V27.2368H158.258C158.81 27.2368 159.217 27.0885 159.479 26.7918C159.755 26.4823 159.893 26.0181 159.893 25.399V4.25574C159.893 3.59804 159.717 3.09508 159.367 2.74689C159.017 2.38579 158.541 2.20526 157.939 2.20526H156.625V0.425574Z" fill="white"/>
<path d="M183.877 0.425574L192.103 0V25.7472C192.103 26.2116 192.248 26.5791 192.535 26.8498C192.823 27.1078 193.237 27.2368 193.775 27.2368H194.884V29.0358H184.309V27.2368H185.511C186.062 27.2368 186.469 27.0885 186.732 26.7918C187.008 26.4823 187.145 26.0181 187.145 25.399V4.25574C187.145 3.59804 186.969 3.09508 186.619 2.74689C186.269 2.38579 185.793 2.20526 185.191 2.20526H183.877V0.425574Z" fill="white"/>
<path d="M203.034 0.483643C203.874 0.483643 204.594 0.793152 205.194 1.41217C205.796 2.0183 206.096 2.75982 206.096 3.63676C206.096 4.5137 205.796 5.26169 205.194 5.8807C204.594 6.48682 203.874 6.78988 203.034 6.78988C202.183 6.78988 201.456 6.48038 200.856 5.86136C200.255 5.24233 199.954 4.50081 199.954 3.63676C199.954 2.75982 200.255 2.0183 200.856 1.41217C201.456 0.793152 202.183 0.483643 203.034 0.483643ZM198.208 10.9296L206.02 10.562V25.9408C206.02 26.3534 206.146 26.6758 206.397 26.9079C206.659 27.1272 207.054 27.2369 207.58 27.2369H208.763V29.0358H198.208V27.2369H199.372C199.998 27.2369 200.437 27.0885 200.687 26.7919C200.95 26.4953 201.081 25.9795 201.081 25.2443V14.7597C201.081 14.102 200.894 13.5926 200.518 13.2315C200.154 12.8704 199.648 12.6899 198.997 12.6899H198.208V10.9296Z" fill="white"/>
<path d="M241.404 10.9293C242.906 9.08517 244.397 8.16309 245.874 8.16309C246.626 8.16309 247.226 8.38878 247.677 8.84015C248.128 9.29151 248.353 9.87184 248.353 10.5811C248.353 11.213 248.177 11.7224 247.827 12.1093C247.489 12.4833 247.057 12.6703 246.531 12.6703C245.793 12.6703 245.26 12.2641 244.935 11.4516C244.735 10.9616 244.496 10.7165 244.222 10.7165C243.87 10.7165 243.394 11.097 242.794 11.8578C244.146 13.2635 244.822 14.7466 244.822 16.307C244.822 17.5193 244.503 18.6154 243.864 19.5956C243.226 20.5757 242.255 21.3559 240.953 21.9362C239.663 22.5166 238.048 22.8067 236.107 22.8067L234.097 22.768C232.608 22.768 231.599 22.9228 231.074 23.2323C230.535 23.5419 230.266 23.9415 230.266 24.4316C230.266 24.8573 230.435 25.1732 230.773 25.3795C231.212 25.6633 231.913 25.8051 232.877 25.8051L234.605 25.747C236.47 25.6439 237.841 25.5923 238.718 25.5923C241.635 25.5923 243.664 26.0178 244.804 26.869C245.943 27.7202 246.513 28.9002 246.513 30.4091C246.513 32.2144 245.855 33.6653 244.54 34.7615C242.937 36.1027 240.139 36.7732 236.144 36.7732C232.739 36.7732 230.347 36.3671 228.971 35.5547C227.593 34.7422 226.904 33.7879 226.904 32.6916C226.904 32.0082 227.198 31.4085 227.787 30.8926C228.375 30.3768 229.622 29.8932 231.525 29.4418C230.285 29.1838 229.353 28.7454 228.726 28.1264C228.1 27.5075 227.787 26.7079 227.787 25.7277C227.787 24.8378 228.019 24.0835 228.482 23.4644C228.958 22.8454 229.802 22.2973 231.017 21.8201C229.866 21.1753 228.995 20.408 228.406 19.5181C227.831 18.6284 227.543 17.616 227.543 16.4811C227.543 15.256 227.862 14.1534 228.5 13.1733C229.139 12.1803 230.122 11.3936 231.449 10.8133C232.776 10.22 234.391 9.92343 236.295 9.92343C237.197 9.92343 238.073 10.0073 238.925 10.1749C239.776 10.3426 240.602 10.594 241.404 10.9293ZM236.183 11.6257C235.318 11.6257 234.573 12.0448 233.947 12.8831C233.333 13.7085 233.027 14.9013 233.027 16.4618C233.027 17.9706 233.333 19.1249 233.947 19.9245C234.561 20.724 235.313 21.1238 236.201 21.1238C237.078 21.1238 237.828 20.7111 238.455 19.8858C239.081 19.0603 239.394 17.8998 239.394 16.4037C239.394 14.8949 239.081 13.7214 238.455 12.8831C237.828 12.0448 237.071 11.6257 236.183 11.6257ZM243.544 32.1887C243.544 31.4278 243.132 30.8733 242.306 30.5251C241.742 30.2801 240.489 30.1576 238.548 30.1576C235.042 30.1576 232.783 30.4025 231.769 30.8926C230.754 31.3827 230.248 31.9953 230.248 32.7303C230.248 33.4267 230.642 34.007 231.43 34.4714C232.219 34.9485 233.715 35.187 235.919 35.187C238.787 35.187 240.853 34.8453 242.118 34.1619C243.068 33.6331 243.544 32.9753 243.544 32.1887Z" fill="white"/>
<path d="M270.542 20.0991H258.203C258.24 22.6396 258.735 24.516 259.687 25.7282C260.651 26.9276 261.884 27.5273 263.386 27.5273C264.463 27.5273 265.484 27.2177 266.448 26.5988C267.412 25.9797 268.401 24.8578 269.415 23.2328L270.786 24.1033C269.723 26.0377 268.502 27.4241 267.124 28.2623C265.76 29.0876 264.088 29.5004 262.109 29.5004C259.229 29.5004 256.901 28.5977 255.123 26.7922C253.345 24.9867 252.455 22.6719 252.455 19.8476C252.455 17.0234 253.35 14.6633 255.141 12.7676C256.932 10.8718 259.13 9.92395 261.734 9.92395C263.536 9.92395 265.083 10.3044 266.372 11.0653C267.676 11.8261 268.683 12.9416 269.397 14.4119C270.123 15.8691 270.505 17.7649 270.542 20.0991ZM258.203 18.3581H264.081C264.633 18.3581 265.028 18.2162 265.265 17.9324C265.502 17.6487 265.622 17.1329 265.622 16.3849C265.622 14.889 265.29 13.7348 264.626 12.9223C263.963 12.0969 263.117 11.6843 262.091 11.6843C260.876 11.6843 259.943 12.2388 259.292 13.3479C258.654 14.457 258.291 16.1271 258.203 18.3581Z" fill="white"/>
<path d="M299.812 27.2369V29.036H289.238V27.2369H290.346C290.935 27.2369 291.372 27.0822 291.66 26.7727C291.948 26.4632 292.092 26.0118 292.092 25.4186V17.5648C292.092 16.2237 291.793 15.1984 291.191 14.4891C290.602 13.7669 289.826 13.4058 288.861 13.4058C287.547 13.4058 286.477 13.9152 285.65 14.934C284.824 15.9399 284.41 17.4165 284.41 19.3638V25.4186C284.41 26.0118 284.555 26.4632 284.842 26.7727C285.143 27.0822 285.525 27.2369 285.988 27.2369H287.322V29.036H276.353V27.2369H277.78C278.332 27.2369 278.744 27.0822 279.02 26.7727C279.308 26.4632 279.452 26.0118 279.452 25.4186V14.6439C279.452 14.0248 279.245 13.5348 278.833 13.1737C278.431 12.7997 277.9 12.6127 277.235 12.6127H276.485V10.9297L283.809 10.5235C284.073 11.6326 284.273 12.9544 284.41 14.4891C285.437 13.0576 286.533 11.9872 287.697 11.2779C288.861 10.5686 290.089 10.214 291.379 10.214C293.132 10.214 294.515 10.8137 295.529 12.013C296.532 13.2123 297.033 14.8824 297.033 17.0232V25.4186C297.033 26.0634 297.176 26.5277 297.464 26.8114C297.753 27.0951 298.209 27.2369 298.835 27.2369H299.812Z" fill="white"/>
<path d="M310.075 3.48169H311.766V10.9292H317.569V13.0184H311.766V24.5282C311.766 25.2891 311.954 25.8823 312.329 26.308C312.706 26.7206 313.199 26.927 313.813 26.927C315.566 26.927 316.493 25.244 316.592 21.8781H318.283C318.246 23.6706 317.97 25.115 317.457 26.2113C316.944 27.2945 316.205 28.1327 315.241 28.7259C314.289 29.3193 313.212 29.6158 312.01 29.6158C310.958 29.6158 310.045 29.3966 309.268 28.9582C308.504 28.5197 307.89 27.8683 307.427 27.0043C306.976 26.1274 306.751 25.1795 306.751 24.1607V13.0184H303.634V11.2388C305.537 10.9808 307.02 10.2264 308.085 8.97548C309.15 7.72453 309.813 5.89328 310.075 3.48169Z" fill="white"/>
<path d="M102.711 19.7636C105.649 19.7636 108.031 17.3106 108.031 14.2846C108.031 11.2587 105.649 8.80566 102.711 8.80566C99.7733 8.80566 97.3916 11.2587 97.3916 14.2846C97.3916 17.3106 99.7733 19.7636 102.711 19.7636Z" fill="#3AABCD"/>
<path d="M177.186 19.7636C180.124 19.7636 182.506 17.3106 182.506 14.2846C182.506 11.2587 180.124 8.80566 177.186 8.80566C174.248 8.80566 171.866 11.2587 171.866 14.2846C171.866 17.3106 174.248 19.7636 177.186 19.7636Z" fill="#3AABCD"/>
<path d="M217.289 19.7636C220.227 19.7636 222.609 17.3106 222.609 14.2846C222.609 11.2587 220.227 8.80566 217.289 8.80566C214.351 8.80566 211.97 11.2587 211.97 14.2846C211.97 17.3106 214.351 19.7636 217.289 19.7636Z" fill="#3AABCD"/>
</svg>
