<svg width="625" height="660" viewBox="0 0 625 660" fill="none" xmlns="http://www.w3.org/2000/svg">
<path d="M76.5312 113.046L5.82208 113.164L5.55882 152.476H76.5312V113.046Z" fill="#F9F9F9"/>
<path fill-rule="evenodd" clip-rule="evenodd" d="M5.55846 152.916H76.5309C76.7942 152.916 76.9697 152.74 76.9697 152.476V113.046C76.9697 112.929 76.9405 112.841 76.8527 112.753C76.765 112.666 76.6479 112.607 76.5309 112.607L5.82173 112.724C5.58769 112.724 5.38291 112.929 5.38291 113.164L5.11964 152.476C5.11964 152.594 5.17812 152.711 5.23663 152.799C5.3244 152.887 5.44144 152.916 5.55846 152.916ZM76.0921 152.037H5.99729L6.26056 113.603L76.0921 113.486V152.037Z" fill="#292929"/>
<path d="M40.4889 132.205C40.5669 132.205 40.6352 132.186 40.6937 132.146L76.7358 113.662C76.9698 113.574 77.0576 113.31 76.9406 113.076C76.8236 112.871 76.5603 112.783 76.3555 112.9L40.5182 131.268L6.37763 113.135C6.17285 113.017 5.90955 113.076 5.79253 113.31C5.67551 113.515 5.76331 113.779 5.96809 113.896L40.2841 132.146C40.3622 132.186 40.4304 132.205 40.4889 132.205Z" fill="#292929"/>
<path d="M-0.000508308 113.193C-0.000508308 116.474 2.66163 119.14 5.93819 119.14C9.21474 119.14 11.877 116.474 11.877 113.193C11.877 109.883 9.21474 107.217 5.93819 107.217C2.66163 107.217 -0.000508308 109.883 -0.000508308 113.193Z" fill="#0D89DA"/>
<path fill-rule="evenodd" clip-rule="evenodd" d="M272.042 431.739C296.85 431.739 320.927 426.876 343.57 417.268C365.453 408.011 385.112 394.74 401.992 377.838C418.872 360.935 432.125 341.249 441.369 319.337C450.936 296.663 455.792 272.554 455.792 247.742C455.792 222.9 450.936 198.791 441.369 176.117C432.125 154.205 418.872 134.519 401.992 117.617C385.112 100.714 365.453 87.4434 343.57 78.1864C320.927 68.5779 296.85 63.7151 272.042 63.7151C247.234 63.7151 223.186 68.5779 200.513 78.1864C178.631 87.4434 159.001 100.714 142.121 117.617C125.24 134.519 111.988 154.205 102.743 176.117C93.1478 198.791 88.2914 222.9 88.2914 247.742C88.2914 272.554 93.1478 296.663 102.743 319.337C111.988 341.249 125.24 360.935 142.121 377.838C159.001 394.74 178.631 408.011 200.513 417.268C223.186 426.876 247.234 431.739 272.042 431.739ZM272.042 64.5939C372.884 64.5939 454.914 146.764 454.914 247.742C454.914 348.69 372.884 430.86 272.042 430.86C171.2 430.86 89.1691 348.69 89.1691 247.742C89.1691 146.764 171.2 64.5939 272.042 64.5939Z" fill="#CCCCCC"/>
<path d="M237.433 116.705L246.59 119.663L243.664 128.833L248.053 130.239L250.978 121.07L260.164 123.999L261.568 119.605L252.412 116.675L255.337 107.477L250.949 106.071L247.994 115.24L238.837 112.311L237.433 116.705Z" fill="#F9F9F9"/>
<path fill-rule="evenodd" clip-rule="evenodd" d="M248.053 130.678C248.111 130.678 248.18 130.659 248.258 130.62C248.345 130.59 248.433 130.473 248.462 130.385L251.271 121.626L260.018 124.438C260.135 124.468 260.252 124.468 260.34 124.409C260.457 124.351 260.545 124.263 260.574 124.146L261.978 119.751C262.066 119.517 261.92 119.253 261.686 119.195L252.938 116.383L255.747 107.624C255.835 107.389 255.718 107.155 255.484 107.067L251.066 105.661C250.978 105.632 250.832 105.632 250.744 105.69C250.627 105.749 250.569 105.837 250.51 105.954L247.731 114.683L238.984 111.901C238.867 111.842 238.75 111.871 238.633 111.93C238.545 111.959 238.457 112.047 238.428 112.164L237.024 116.588C236.936 116.793 237.053 117.056 237.287 117.115L246.034 119.927L243.226 128.686C243.167 128.92 243.284 129.184 243.518 129.243L247.907 130.649C247.965 130.668 248.014 130.678 248.053 130.678ZM250.978 120.63C250.92 120.63 250.852 120.65 250.774 120.689C250.686 120.718 250.598 120.835 250.569 120.923L247.76 129.682L244.191 128.54L247 119.781C247.087 119.546 246.941 119.312 246.736 119.224L237.989 116.412L239.13 112.867L247.877 115.68C248.111 115.738 248.345 115.621 248.433 115.387L251.212 106.628L254.781 107.77L251.973 116.529C251.944 116.646 251.944 116.763 252.002 116.851C252.061 116.968 252.149 117.056 252.266 117.086L261.013 119.898L259.872 123.472L251.125 120.66C251.086 120.64 251.037 120.63 250.978 120.63Z" fill="#292929"/>
<path d="M519.649 353.755C519.649 360.229 524.915 365.502 531.409 365.502C537.875 365.502 543.141 360.229 543.141 353.755C543.141 347.251 537.875 341.978 531.409 341.978C524.915 341.978 519.649 347.251 519.649 353.755Z" fill="#F9F9F9"/>
<path fill-rule="evenodd" clip-rule="evenodd" d="M531.41 365.941C538.109 365.941 543.58 360.463 543.58 353.755C543.58 347.017 538.109 341.539 531.41 341.539C524.681 341.539 519.211 347.017 519.211 353.755C519.211 360.463 524.681 365.941 531.41 365.941ZM531.41 342.418C537.641 342.418 542.702 347.515 542.702 353.755C542.702 359.995 537.641 365.063 531.41 365.063C525.179 365.063 520.088 359.995 520.088 353.755C520.088 347.515 525.179 342.418 531.41 342.418Z" fill="#292929"/>
<path d="M255.424 5.62441C255.424 8.46596 257.706 10.7802 260.573 10.7802C263.411 10.7802 265.722 8.46596 265.722 5.62441C265.722 2.75357 263.411 0.439331 260.573 0.439331C257.706 0.439331 255.424 2.75357 255.424 5.62441Z" fill="#F9F9F9"/>
<path fill-rule="evenodd" clip-rule="evenodd" d="M260.573 11.2197C263.645 11.2197 266.161 8.70039 266.161 5.6245C266.161 2.5193 263.645 0 260.573 0C257.472 0 254.986 2.5193 254.986 5.6245C254.986 8.70039 257.472 11.2197 260.573 11.2197ZM260.573 0.878828C263.177 0.878828 265.283 3.01731 265.283 5.6245C265.283 8.23169 263.177 10.3409 260.573 10.3409C257.97 10.3409 255.863 8.23169 255.863 5.6245C255.863 3.01731 257.97 0.878828 260.573 0.878828Z" fill="#292929"/>
<path d="M615.755 81.6535C615.755 84.085 617.715 86.0477 620.143 86.0477C622.571 86.0477 624.561 84.085 624.561 81.6535C624.561 79.2221 622.571 77.2301 620.143 77.2301C617.715 77.2301 615.755 79.2221 615.755 81.6535Z" fill="#F9F9F9"/>
<path fill-rule="evenodd" clip-rule="evenodd" d="M620.144 86.4872C622.835 86.4872 625 84.3194 625 81.6536C625 78.9878 622.835 76.7908 620.144 76.7908C617.481 76.7908 615.317 78.9878 615.317 81.6536C615.317 84.3194 617.481 86.4872 620.144 86.4872ZM620.144 77.6696C622.338 77.6696 624.122 79.4565 624.122 81.6536C624.122 83.8507 622.338 85.6083 620.144 85.6083C617.979 85.6083 616.194 83.8507 616.194 81.6536C616.194 79.4565 617.979 77.6696 620.144 77.6696Z" fill="#292929"/>
<path d="M408.194 265.494H608.356C614.705 265.494 619.883 260.309 619.883 253.952V123.505C619.883 117.148 614.705 111.992 608.356 111.992H396.668V253.952C396.668 260.309 401.817 265.494 408.194 265.494Z" fill="#F9F9F9"/>
<path fill-rule="evenodd" clip-rule="evenodd" d="M408.194 265.933H608.356C614.938 265.933 620.321 260.543 620.321 253.952V123.505C620.321 116.913 614.938 111.552 608.356 111.552H396.667C396.433 111.552 396.228 111.728 396.228 111.992V253.952C396.228 260.543 401.582 265.933 408.194 265.933ZM608.356 112.431C614.47 112.431 619.444 117.411 619.444 123.505V253.952C619.444 260.074 614.47 265.055 608.356 265.055H408.194C402.079 265.055 397.106 260.074 397.106 253.952V112.431H608.356Z" fill="#0D89DA"/>
<path d="M304.251 239.686H574.889C584.748 239.686 592.734 231.688 592.734 221.816V47.1051C592.734 37.2329 584.748 29.2063 574.889 29.2063H304.251C294.393 29.2063 286.377 37.2329 286.377 47.1051V221.816C286.377 231.688 294.393 239.686 304.251 239.686Z" fill="#F9F9F9"/>
<path fill-rule="evenodd" clip-rule="evenodd" d="M304.251 240.125H574.889C584.981 240.125 593.173 231.894 593.173 221.816V47.1053C593.173 36.9988 584.981 28.7671 574.889 28.7671H304.251C294.158 28.7671 285.938 36.9988 285.938 47.1053V221.816C285.938 231.894 294.158 240.125 304.251 240.125ZM574.889 29.6459C584.484 29.6459 592.295 37.4675 592.295 47.1053V221.816C592.295 231.425 584.484 239.246 574.889 239.246H304.251C294.655 239.246 286.815 231.425 286.815 221.816V47.1053C286.815 37.4675 294.655 29.6459 304.251 29.6459H574.889Z" fill="#0D89DA"/>
<path d="M460.18 63.6271H569.038C571.466 63.6271 573.455 61.6351 573.455 59.2037C573.455 56.743 571.466 54.7803 569.038 54.7803H460.18C457.752 54.7803 455.762 56.743 455.762 59.2037C455.762 61.6351 457.752 63.6271 460.18 63.6271Z" fill="#F9F9F9"/>
<path fill-rule="evenodd" clip-rule="evenodd" d="M460.181 64.0663H569.038C571.73 64.0663 573.895 61.8692 573.895 59.2034C573.895 56.5083 571.73 54.3406 569.038 54.3406H460.181C457.518 54.3406 455.324 56.5083 455.324 59.2034C455.324 61.8692 457.518 64.0663 460.181 64.0663ZM569.038 55.2194C571.232 55.2194 573.017 57.0063 573.017 59.2034C573.017 61.4005 571.232 63.1875 569.038 63.1875H460.181C457.986 63.1875 456.202 61.4005 456.202 59.2034C456.202 57.0063 457.986 55.2194 460.181 55.2194H569.038Z" fill="#292929"/>
<path d="M347.519 63.6271H399.739C402.167 63.6271 404.127 61.6351 404.127 59.2037C404.127 56.743 402.167 54.7803 399.739 54.7803H347.519C345.061 54.7803 343.101 56.743 343.101 59.2037C343.101 61.6351 345.061 63.6271 347.519 63.6271Z" fill="#F9F9F9"/>
<path fill-rule="evenodd" clip-rule="evenodd" d="M347.519 64.0663H399.739C402.402 64.0663 404.566 61.8692 404.566 59.2034C404.566 56.5083 402.402 54.3406 399.739 54.3406H347.519C344.828 54.3406 342.663 56.5083 342.663 59.2034C342.663 61.8692 344.828 64.0663 347.519 64.0663ZM399.739 55.2194C401.904 55.2194 403.689 57.0063 403.689 59.2034C403.689 61.4005 401.904 63.1875 399.739 63.1875H347.519C345.325 63.1875 343.541 61.4005 343.541 59.2034C343.541 57.0063 345.325 55.2194 347.519 55.2194H399.739Z" fill="#292929"/>
<path fill-rule="evenodd" clip-rule="evenodd" d="M460.181 90.5778H569.038C571.73 90.5778 573.895 88.3807 573.895 85.7149C573.895 83.0198 571.73 80.8521 569.038 80.8521H460.181C457.518 80.8521 455.324 83.0198 455.324 85.7149C455.324 88.3807 457.518 90.5778 460.181 90.5778ZM569.038 81.7309C571.232 81.7309 573.017 83.5178 573.017 85.7149C573.017 87.912 571.232 89.6989 569.038 89.6989H460.181C457.986 89.6989 456.202 87.912 456.202 85.7149C456.202 83.5178 457.986 81.7309 460.181 81.7309H569.038Z" fill="#0D89DA"/>
<path d="M382.947 90.1386H435.138C437.596 90.1386 439.556 88.1466 439.556 85.7152C439.556 83.2545 437.596 81.2917 435.138 81.2917H382.947C380.49 81.2917 378.53 83.2545 378.53 85.7152C378.53 88.1466 380.49 90.1386 382.947 90.1386Z" fill="#292929"/>
<path d="M344.184 90.1386H360.625C363.054 90.1386 365.043 88.1466 365.043 85.7152C365.043 83.2545 363.054 81.2917 360.625 81.2917H344.184C341.756 81.2917 339.796 83.2545 339.796 85.7152C339.796 88.1466 341.756 90.1386 344.184 90.1386Z" fill="#292929"/>
<path d="M511.932 172.133H564.123C566.58 172.133 568.54 170.141 568.54 167.71C568.54 165.249 566.58 163.286 564.123 163.286H511.932C509.474 163.286 507.514 165.249 507.514 167.71C507.514 170.141 509.474 172.133 511.932 172.133Z" fill="#292929"/>
<path d="M308.405 172.133H459.946C462.374 172.133 464.363 170.141 464.363 167.71C464.363 165.249 462.374 163.286 459.946 163.286H308.405C305.977 163.286 303.988 165.249 303.988 167.71C303.988 170.141 305.977 172.133 308.405 172.133Z" fill="#292929"/>
<path fill-rule="evenodd" clip-rule="evenodd" d="M462.52 198H514.74C517.403 198 519.597 195.832 519.597 193.137C519.597 190.471 517.403 188.303 514.74 188.303H462.52C459.829 188.303 457.664 190.471 457.664 193.137C457.664 195.832 459.829 198 462.52 198ZM514.74 189.182C516.934 189.182 518.719 190.969 518.719 193.137C518.719 195.334 516.934 197.121 514.74 197.121H462.52C460.326 197.121 458.542 195.334 458.542 193.137C458.542 190.969 460.326 189.182 462.52 189.182H514.74Z" fill="#0D89DA"/>
<path fill-rule="evenodd" clip-rule="evenodd" d="M413.109 116.855H521.967C524.658 116.855 526.823 114.658 526.823 111.992C526.823 109.297 524.658 107.129 521.967 107.129H413.109C410.447 107.129 408.253 109.297 408.253 111.992C408.253 114.658 410.447 116.855 413.109 116.855ZM521.967 108.008C524.161 108.008 525.946 109.795 525.946 111.992C525.946 114.189 524.161 115.976 521.967 115.976H413.109C410.915 115.976 409.131 114.189 409.131 111.992C409.131 109.795 410.915 108.008 413.109 108.008H521.967Z" fill="#0D89DA"/>
<path d="M338.918 194.865H391.138C393.596 194.865 395.556 192.873 395.556 190.442C395.556 188.011 393.596 186.019 391.138 186.019H338.918C336.49 186.019 334.501 188.011 334.501 190.442C334.501 192.873 336.49 194.865 338.918 194.865Z" fill="#0D89DA"/>
<path fill-rule="evenodd" clip-rule="evenodd" d="M413.109 221.582H564.123C566.815 221.582 568.979 219.385 568.979 216.719C568.979 214.053 566.815 211.856 564.123 211.856H413.109C410.447 211.856 408.253 214.053 408.253 216.719C408.253 219.385 410.447 221.582 413.109 221.582ZM564.123 212.735C566.317 212.735 568.102 214.522 568.102 216.719C568.102 218.916 566.317 220.703 564.123 220.703H413.109C410.915 220.703 409.131 218.916 409.131 216.719C409.131 214.522 410.915 212.735 413.109 212.735H564.123Z" fill="#0D89DA"/>
<path fill-rule="evenodd" clip-rule="evenodd" d="M335.876 116.855H388.096C390.758 116.855 392.923 114.658 392.923 111.992C392.923 109.297 390.758 107.129 388.096 107.129H335.876C333.184 107.129 331.019 109.297 331.019 111.992C331.019 114.658 333.184 116.855 335.876 116.855ZM388.096 108.008C390.261 108.008 392.045 109.795 392.045 111.992C392.045 114.189 390.261 115.976 388.096 115.976H335.876C333.682 115.976 331.897 114.189 331.897 111.992C331.897 109.795 333.682 108.008 335.876 108.008H388.096Z" fill="#0D89DA"/>
<path d="M455.294 143.278H564.123C566.58 143.278 568.54 141.315 568.54 138.855C568.54 136.423 566.58 134.46 564.123 134.46H455.294C452.837 134.46 450.877 136.423 450.877 138.855C450.877 141.315 452.837 143.278 455.294 143.278Z" fill="#0D89DA"/>
<path d="M378.031 143.278H430.251C432.68 143.278 434.669 141.315 434.669 138.855C434.669 136.423 432.68 134.46 430.251 134.46H378.031C375.603 134.46 373.614 136.423 373.614 138.855C373.614 141.315 375.603 143.278 378.031 143.278Z" fill="#292929"/>
<path d="M308.405 143.278H360.625C363.054 143.278 365.043 141.315 365.043 138.855C365.043 136.423 363.054 134.46 360.625 134.46H308.405C305.977 134.46 303.988 136.423 303.988 138.855C303.988 141.315 305.977 143.278 308.405 143.278Z" fill="#292929"/>
<path d="M171.756 114.423C171.756 114.423 171.697 91.2808 161.312 87.7655C150.926 84.2501 145.105 98.2235 145.105 98.2235L171.756 114.423Z" fill="#292929"/>
<path d="M174.944 171.459C174.3 166.187 166.372 136.775 166.372 136.775C166.372 136.775 132.67 130.535 132.905 133.641C133.139 136.746 141.154 176.762 141.184 177.728C141.184 177.728 178.103 196.653 174.944 171.459Z" fill="#F9F9F9"/>
<path fill-rule="evenodd" clip-rule="evenodd" d="M164.413 184.993C167.251 184.993 169.854 184.437 171.814 183.06C174.886 180.921 176.086 176.996 175.384 171.401C174.74 166.157 167.134 137.859 166.812 136.658C166.753 136.511 166.636 136.394 166.461 136.365C166.373 136.335 158.65 134.9 150.692 133.757C134.456 131.443 133.227 132.556 132.759 132.967C132.554 133.142 132.437 133.406 132.466 133.67C132.613 135.574 135.568 150.719 137.937 162.905C139.371 170.287 140.716 177.289 140.746 177.728C140.775 177.904 140.863 178.05 140.98 178.109C141.682 178.461 154.554 184.993 164.413 184.993ZM166.022 137.156C166.812 140.144 173.892 166.596 174.506 171.518C175.179 176.761 174.096 180.394 171.317 182.357C163.36 187.923 143.817 178.519 141.594 177.435C141.419 176.205 140.453 171.313 138.786 162.73C136.416 150.572 133.49 135.457 133.344 133.611C133.461 133.406 134.953 132.41 150.195 134.578C157.421 135.603 164.559 136.892 166.022 137.156Z" fill="#292929"/>
<path d="M123.865 94.1809C113.041 104.551 131.091 135.105 133.695 138.474C136.299 141.813 172.136 160.21 180.239 143.044C184.598 133.787 170.732 94.8254 165.29 90.4898C156.836 83.7815 155.051 82.4925 144.548 84.9239C136.942 86.6816 128.692 89.5524 123.865 94.1809Z" fill="#F9F9F9"/>
<path d="M166.548 150.719C173.482 150.719 178.28 148.2 180.62 143.22C183.516 137.097 178.455 119.901 176.846 114.775C173.599 104.405 168.655 92.6283 165.554 90.1676C156.924 83.2834 154.963 82.0531 144.432 84.5138C144.198 84.5431 144.051 84.7775 144.11 85.0118C144.168 85.2755 144.402 85.4219 144.636 85.3633C155.081 82.9319 156.807 84.3087 164.998 90.8414C167.572 92.892 172.312 103.291 176.027 115.038C180.269 128.514 181.673 138.913 179.83 142.868C175.939 151.1 165.437 150.543 157.333 148.61C157.099 148.551 156.865 148.698 156.807 148.961C156.748 149.196 156.894 149.43 157.128 149.489C160.61 150.309 163.74 150.719 166.548 150.719Z" fill="#292929"/>
<path d="M167.221 132.175C168.537 132.175 169.971 131.853 171.317 130.945C171.521 130.799 171.58 130.535 171.463 130.33C171.317 130.125 171.053 130.066 170.849 130.213C167.309 132.527 163.359 130.476 162.218 129.774C162.014 129.656 161.75 129.715 161.604 129.92C161.487 130.125 161.545 130.389 161.75 130.506C162.569 131.004 164.705 132.175 167.221 132.175Z" fill="#292929"/>
<path d="M169.766 125.321C169.913 125.321 170.059 125.233 170.147 125.116C170.966 123.944 171.814 121.981 171.99 120.751C172.107 119.901 171.756 119.023 171.054 118.495C171.034 118.495 171.024 118.485 171.024 118.466L167.075 116.035L166.022 109.238C165.964 109.004 165.759 108.828 165.496 108.857C165.262 108.916 165.115 109.121 165.145 109.385L166.227 116.357C166.256 116.474 166.344 116.591 166.432 116.679L170.527 119.228C170.966 119.55 171.2 120.077 171.112 120.634C170.966 121.718 170.176 123.534 169.415 124.618C169.269 124.823 169.328 125.086 169.532 125.233C169.61 125.292 169.688 125.321 169.766 125.321Z" fill="#292929"/>
<path d="M153.413 116.122C153.735 117.441 154.641 118.378 155.46 118.173C156.25 117.997 156.66 116.738 156.338 115.419C156.016 114.072 155.109 113.164 154.29 113.339C153.501 113.544 153.091 114.775 153.413 116.122Z" fill="#292929"/>
<path d="M169.942 112.168C170.234 113.515 171.17 114.423 171.96 114.247C172.779 114.042 173.159 112.812 172.867 111.465C172.545 110.146 171.638 109.209 170.819 109.414C170 109.59 169.62 110.849 169.942 112.168Z" fill="#292929"/>
<path d="M147.474 111.172C147.572 111.172 147.66 111.142 147.738 111.084C152.331 107.598 157.801 107.422 157.86 107.422C158.094 107.422 158.27 107.217 158.27 106.983C158.27 106.748 158.065 106.543 157.831 106.543C157.597 106.573 152.038 106.719 147.211 110.381C147.006 110.527 146.977 110.82 147.123 110.996C147.211 111.113 147.357 111.172 147.474 111.172Z" fill="#292929"/>
<path d="M167.192 105.195C167.231 105.195 167.26 105.195 167.28 105.195C168.04 105.019 170.234 104.58 171.199 104.756C171.433 104.814 171.667 104.639 171.697 104.404C171.755 104.17 171.58 103.936 171.346 103.906C170 103.643 167.221 104.317 167.104 104.346C166.841 104.404 166.724 104.639 166.753 104.873C166.812 105.078 166.987 105.195 167.192 105.195Z" fill="#292929"/>
<path d="M130.214 115.185C131.238 114.072 131.735 97.2274 131.735 97.2274C131.735 97.2274 153.062 99.8346 161.838 94.503C174.681 86.7108 165.875 70.5403 164.413 73.9092C162.979 77.278 165.524 76.077 165.524 76.077C168.333 70.4817 163.74 66.8785 159.907 67.9038C151.043 70.2767 129.629 75.5204 129.629 75.5204C120.062 73.8506 118.482 83.2833 118.482 83.2833C106.342 89.2301 112.368 102.295 112.368 102.295C108.36 103.731 107.131 110.586 112.163 117.47C117.4 124.676 133.636 142.516 133.636 142.516C141.243 142.018 130.214 115.185 130.214 115.185Z" fill="#292929"/>
<path d="M133.782 116.826C133.782 116.826 125.737 112.812 122.461 119.755C117.868 129.51 129.804 135.75 135.245 132.469C140.687 129.188 133.782 116.826 133.782 116.826Z" fill="#F9F9F9"/>
<path d="M126.468 129.246C126.566 129.246 126.663 129.217 126.761 129.158C126.936 129.012 126.966 128.719 126.79 128.543C125.006 126.405 124.274 124.442 124.655 122.743C125.093 120.663 126.995 119.462 128.107 118.935C129.774 118.114 131.676 118.993 131.676 118.993C131.91 119.11 132.173 119.023 132.261 118.788C132.378 118.583 132.29 118.319 132.056 118.202C131.968 118.173 129.774 117.118 127.726 118.144C126.468 118.73 124.304 120.136 123.777 122.567C123.367 124.53 124.157 126.756 126.147 129.1C126.205 129.217 126.351 129.246 126.468 129.246Z" fill="#292929"/>
<path d="M131.033 126.551C131.267 126.551 131.472 126.346 131.472 126.112C131.472 125.877 131.296 125.672 131.033 125.672L124.656 125.555C124.422 125.584 124.217 125.76 124.217 125.994C124.217 126.229 124.422 126.434 124.656 126.434L131.033 126.551Z" fill="#292929"/>
<path d="M189.279 193.284L220.494 270.767C225.292 282.572 238.603 288.373 250.51 283.92C262.943 279.233 269.057 265.201 263.996 252.897L235.882 180.892C231.289 169.702 218.944 163.843 207.388 167.387C194.165 171.401 184.043 180.482 189.279 193.284Z" fill="#F0EDEA"/>
<path d="M265.986 253.337L238.486 181.273C233.513 168.032 218.769 161.294 205.516 166.216C191.825 171.313 181.907 181.302 187.524 194.778L219.91 272.144C225.029 284.389 238.838 290.453 251.3 285.971C264.523 281.196 271.164 266.402 265.986 253.337Z" fill="#F9F9F9"/>
<path d="M245.858 240.623V287.435L343.131 274.927L338.392 245.252L245.858 240.623Z" fill="#F9F9F9"/>
<path d="M245.858 247.185C245.917 247.185 245.965 247.175 246.004 247.156L261.392 241.824L338.391 245.691C338.625 245.72 338.83 245.515 338.83 245.281C338.859 245.047 338.655 244.841 338.421 244.812L261.334 240.945C261.295 240.945 261.246 240.955 261.188 240.975L245.741 246.335C245.507 246.423 245.39 246.658 245.448 246.892C245.507 247.068 245.682 247.185 245.858 247.185Z" fill="#292929"/>
<path d="M305.451 311.047C322.945 363.688 361.474 476.999 361.474 476.999L397.691 468.913L370.543 292.415C368.553 278.12 351.907 268.189 334.764 270.825C315.602 273.755 299.307 292.65 305.451 311.047Z" fill="#F9F9F9"/>
<path fill-rule="evenodd" clip-rule="evenodd" d="M361.474 477.438C361.493 477.438 361.522 477.428 361.561 477.409L397.779 469.324C398.013 469.294 398.159 469.06 398.13 468.826L370.952 292.328C370.133 286.322 366.652 280.727 361.152 276.626C353.984 271.294 344.096 268.951 334.705 270.386C323.94 272.027 313.759 278.764 308.142 287.992C303.607 295.374 302.525 303.606 305.041 311.193C322.331 363.22 360.655 476.003 361.064 477.116C361.123 477.321 361.269 477.438 361.474 477.438ZM397.194 468.562L361.766 476.471C359.309 469.265 322.682 361.433 305.86 310.9C303.432 303.577 304.485 295.609 308.873 288.431C314.373 279.438 324.32 272.847 334.852 271.265C344.008 269.859 353.633 272.115 360.625 277.329C365.92 281.313 369.285 286.674 370.104 292.474L397.194 468.562Z" fill="#292929"/>
<path d="M462.433 514.495C461.935 512.943 459.917 506.498 459.127 506.41C458.659 506.381 450.116 502.69 442.627 499.438C435.138 496.157 428.146 491.822 421.915 486.519L404.128 471.462L395.263 460.037L356.735 463.318L353.604 495.981C352.2 496.802 351.293 498.208 351.147 499.819L349.889 513.001L459.595 523.547L461.818 522.258L462.521 514.847C462.521 514.847 462.491 514.7 462.433 514.495Z" fill="#292929"/>
<path d="M350.444 507.084L349.888 513.001L459.594 523.547L461.818 522.258L461.993 520.471L350.444 507.084Z" fill="#292929"/>
<path d="M462.433 514.495L353.604 495.981C352.2 496.801 351.293 498.208 351.147 499.819L350.035 511.536L461.818 522.258L462.521 514.847C462.521 514.847 462.491 514.7 462.433 514.495Z" fill="#292929"/>
<path d="M462.374 516.956C462.579 516.956 462.755 516.809 462.784 516.604C462.843 516.37 462.696 516.136 462.433 516.077L353.692 495.542C353.458 495.513 353.224 495.659 353.166 495.893C353.137 496.157 353.283 496.362 353.517 496.421L462.287 516.956C462.306 516.956 462.335 516.956 462.374 516.956Z" fill="#F9F9F9"/>
<path d="M399.885 484.791C400.032 484.791 400.149 484.732 400.237 484.615C400.295 484.556 404.947 478.229 411.675 478.873C411.909 478.873 412.143 478.698 412.143 478.463C412.173 478.229 411.997 478.024 411.763 477.995C404.537 477.291 399.739 483.824 399.534 484.088C399.388 484.293 399.447 484.557 399.622 484.703C399.7 484.762 399.788 484.791 399.885 484.791Z" fill="#F9F9F9"/>
<path d="M406.672 489.595C406.789 489.595 406.906 489.566 406.994 489.449C407.053 489.39 412.406 483.18 417.848 484.117C418.082 484.176 418.316 484 418.374 483.766C418.403 483.531 418.257 483.297 417.994 483.268C412.055 482.213 406.555 488.599 406.321 488.892C406.175 489.068 406.204 489.361 406.38 489.507C406.467 489.566 406.555 489.595 406.672 489.595Z" fill="#F9F9F9"/>
<path d="M413.84 494.956C413.986 494.956 414.132 494.897 414.22 494.751C414.249 494.692 417.848 488.423 423.611 488.98C423.845 489.009 424.079 488.833 424.108 488.599C424.108 488.335 423.933 488.13 423.699 488.101C417.351 487.486 413.606 494.018 413.46 494.311C413.313 494.516 413.401 494.78 413.606 494.897C413.684 494.936 413.762 494.956 413.84 494.956Z" fill="#F9F9F9"/>
<path d="M160.58 391.576C161.731 393.412 163.008 395.121 164.412 396.703C171.785 405.11 182.258 409.798 193.082 410.061C199.46 410.208 205.925 408.801 211.952 405.696C239.89 391.313 281.11 370.133 316.655 351.443L347.314 454.09L399.681 442.05L372.971 299.182C372.444 290.892 369.694 282.602 365.131 276.479C359.309 268.628 350.328 264.117 340.937 263.824C337.192 263.678 333.389 264.234 329.674 265.523L272.041 291.742L207.651 321.036L198.348 325.284L177.636 334.687C171.931 337.294 167.192 341.044 163.506 345.555C153.149 358.181 151.218 376.666 160.58 391.576Z" fill="#0D89DA"/>
<path d="M347.315 454.53C347.334 454.53 347.363 454.53 347.403 454.53L399.798 442.461C400.032 442.402 400.178 442.197 400.12 441.963L373.41 299.124C372.854 290.599 369.958 282.221 365.482 276.216C359.66 268.365 350.708 263.678 340.966 263.385C337.076 263.238 333.243 263.824 329.528 265.113C329.528 265.113 329.518 265.113 329.498 265.113L271.866 291.332C271.632 291.449 271.544 291.712 271.632 291.917C271.749 292.152 271.983 292.24 272.217 292.152L329.85 265.933C333.419 264.703 337.163 264.117 340.937 264.264C350.416 264.557 359.104 269.097 364.78 276.743C369.168 282.631 372.006 290.834 372.532 299.212C372.532 299.231 372.532 299.251 372.532 299.27L399.184 441.699L347.607 453.592L317.094 351.297C317.036 351.18 316.948 351.092 316.831 351.033C316.714 350.975 316.568 350.975 316.451 351.033C283.276 368.493 245.244 388.061 217.481 402.357L211.747 405.316C211.543 405.403 211.455 405.667 211.572 405.901C211.66 406.107 211.923 406.194 212.157 406.077L217.891 403.118C245.508 388.911 283.305 369.459 316.392 352.059L346.876 454.237C346.934 454.413 347.11 454.53 347.315 454.53Z" fill="#292929"/>
<path d="M258.994 308.967C261.685 306.975 231.231 267.72 231.231 267.72L147.298 298.714L149.756 369.166C149.756 369.166 256.302 310.929 258.994 308.967Z" fill="#0D89DA"/>
<path d="M147.737 308.322C147.776 308.322 147.825 308.322 147.884 308.322L237.257 275.864C237.491 275.776 237.608 275.513 237.521 275.307C237.462 275.073 237.199 274.956 236.965 275.044L147.591 307.473C147.357 307.56 147.24 307.824 147.328 308.058C147.386 308.234 147.562 308.322 147.737 308.322Z" fill="#292929"/>
<path d="M316.655 351.883C316.889 351.883 317.065 351.707 317.094 351.502L319.405 334.863C319.434 334.628 319.259 334.394 319.025 334.365C318.791 334.335 318.557 334.482 318.527 334.746L316.217 351.385C316.187 351.619 316.363 351.824 316.597 351.883C316.616 351.883 316.636 351.883 316.655 351.883Z" fill="#292929"/>
<path d="M325.022 423.566C334.881 478.17 356.91 595.816 356.91 595.816L392.221 589.606L386.077 417.473C386.165 403.06 377.096 387.768 359.777 387.944C340.381 388.09 321.57 404.466 325.022 423.566Z" fill="#F9F9F9"/>
<path fill-rule="evenodd" clip-rule="evenodd" d="M356.911 596.256C356.93 596.256 356.95 596.246 356.969 596.226L392.28 590.016C392.514 589.987 392.66 589.782 392.66 589.577L386.517 417.473C386.575 408.714 383.269 400.16 377.711 394.623C372.972 389.907 366.77 387.417 359.748 387.505C348.866 387.593 337.836 392.807 330.961 401.127C325.432 407.806 323.18 415.803 324.584 423.654C334.326 477.614 356.238 594.703 356.472 595.875C356.501 596.109 356.677 596.256 356.911 596.256ZM391.753 589.225L357.262 595.289C355.77 587.467 334.911 475.798 325.462 423.507C324.087 415.891 326.281 408.157 331.634 401.683C338.334 393.569 349.129 388.471 359.778 388.384C366.535 388.325 372.533 390.698 377.097 395.238C382.479 400.629 385.668 408.948 385.639 417.473L391.753 589.225Z" fill="#292929"/>
<path d="M180.562 406.487C218.154 414.075 290.18 425.089 325.754 430.392L344.184 550.352L397.253 548.301L385.931 392.748C385.892 392.475 385.844 392.192 385.785 391.899C383.094 378.453 372.006 368.317 358.402 366.823L196.359 331.26C176.554 326.924 156.807 338.73 151.248 358.24C145.075 379.8 158.591 402.064 180.562 406.487Z" fill="#0D89DA"/>
<path d="M447.015 651.739C446.868 650.099 446.196 643.39 445.435 643.156C444.967 643.009 437.361 637.649 430.69 632.932C424.02 628.216 418.052 622.533 413.02 616.088L398.686 597.72L392.308 584.743L353.926 580.085L344.242 611.43C342.692 611.957 341.521 613.159 341.024 614.711L337.133 627.337L442.422 660L444.85 659.209L447.044 652.061C447.044 652.061 447.044 651.944 447.015 651.739Z" fill="#292929"/>
<path d="M338.889 621.654L337.134 627.337L442.422 660L444.85 659.209L445.377 657.481L338.889 621.654Z" fill="#292929"/>
<path d="M447.015 651.739L344.242 611.43C342.692 611.957 341.521 613.159 341.024 614.711L337.572 625.931L444.85 659.209L447.044 652.061C447.044 652.061 447.044 651.944 447.015 651.739Z" fill="#292929"/>
<path d="M446.547 654.141C446.723 654.141 446.898 654.024 446.957 653.848C447.045 653.643 446.928 653.379 446.723 653.291L344.389 611.049C344.184 610.932 343.921 611.049 343.833 611.283C343.745 611.489 343.833 611.752 344.067 611.84L446.372 654.082C446.43 654.121 446.489 654.141 446.547 654.141Z" fill="#F9F9F9"/>
<path d="M391.899 609.907C392.016 609.907 392.133 609.877 392.191 609.79C392.25 609.731 398.13 604.487 404.566 606.509C404.8 606.567 405.034 606.45 405.122 606.216C405.18 605.981 405.063 605.747 404.829 605.659C397.896 603.521 391.869 608.911 391.606 609.145C391.43 609.321 391.43 609.585 391.577 609.76C391.665 609.848 391.782 609.907 391.899 609.907Z" fill="#F9F9F9"/>
<path d="M397.574 616C397.652 616 397.74 615.971 397.837 615.912C397.896 615.854 404.419 610.874 409.539 612.895C409.773 613.012 410.036 612.895 410.124 612.661C410.212 612.426 410.095 612.192 409.861 612.104C404.273 609.878 397.574 615.004 397.281 615.238C397.106 615.385 397.076 615.649 397.223 615.854C397.311 615.942 397.428 616 397.574 616Z" fill="#F9F9F9"/>
<path d="M403.484 622.708C403.601 622.708 403.747 622.65 403.835 622.562C403.864 622.503 408.662 617.113 414.191 618.842C414.425 618.9 414.688 618.783 414.747 618.549C414.834 618.314 414.688 618.08 414.454 617.992C408.369 616.117 403.367 621.742 403.162 621.976C402.986 622.181 403.015 622.445 403.191 622.591C403.279 622.679 403.396 622.708 403.484 622.708Z" fill="#F9F9F9"/>
<path d="M344.184 550.791C344.204 550.791 344.213 550.791 344.213 550.791L397.282 548.74C397.399 548.74 397.516 548.682 397.604 548.594C397.662 548.506 397.721 548.389 397.691 548.272L386.37 392.719C386.331 392.406 386.282 392.104 386.224 391.811C383.474 378.13 372.327 367.907 358.49 366.383L245.975 341.688C245.741 341.659 245.507 341.805 245.449 342.04C245.39 342.274 245.536 342.509 245.771 342.567L358.314 367.233C358.334 367.252 358.353 367.262 358.373 367.262C371.83 368.727 382.684 378.687 385.346 391.987C385.404 392.26 385.453 392.533 385.492 392.807L396.785 547.891L344.564 549.912L326.192 430.333C326.163 430.128 326.017 429.981 325.841 429.952C322.604 429.483 319.337 429.005 316.041 428.517C283.305 423.654 246.239 418.117 212.04 411.233L189.601 408.157C166.841 405.023 150.107 386.098 149.814 363.102C149.814 362.868 149.58 362.663 149.346 362.663C149.112 362.663 148.937 362.868 148.937 363.102C149.083 374.351 153.266 385.19 160.697 393.598C168.128 402.005 178.338 407.483 189.455 409.007L211.893 412.082C246.063 418.996 283.158 424.503 315.895 429.366C319.093 429.854 322.253 430.323 325.373 430.772L343.745 550.41C343.804 550.644 343.979 550.791 344.184 550.791Z" fill="#292929"/>
<path d="M325.753 430.831C325.9 430.831 326.017 430.772 326.105 430.684L336.08 418.205C336.227 418.029 336.197 417.736 335.993 417.59C335.817 417.443 335.554 417.473 335.378 417.648L325.432 430.128C325.285 430.304 325.315 430.597 325.49 430.743C325.568 430.802 325.656 430.831 325.753 430.831Z" fill="#292929"/>
<path d="M206.218 310.49L315.134 287.289L313.642 280.317L205.398 306.975C204.462 307.209 203.877 308.146 204.082 309.113C204.287 310.08 205.252 310.695 206.218 310.49Z" fill="#F9F9F9"/>
<path fill-rule="evenodd" clip-rule="evenodd" d="M205.838 310.988C205.994 310.988 206.15 310.968 206.306 310.929L315.222 287.728C315.339 287.699 315.427 287.64 315.486 287.553C315.544 287.435 315.573 287.318 315.544 287.201L314.052 280.229C314.052 280.112 313.964 279.995 313.877 279.936C313.76 279.877 313.643 279.848 313.526 279.877L205.312 306.535C204.112 306.828 203.381 308 203.644 309.201C203.761 309.787 204.112 310.285 204.609 310.607C204.99 310.842 205.399 310.988 205.838 310.988ZM314.608 286.967L206.131 310.08C205.78 310.138 205.399 310.08 205.107 309.875C204.785 309.67 204.58 309.377 204.492 308.996C204.346 308.264 204.785 307.561 205.516 307.385L313.292 280.844L314.608 286.967Z" fill="#292929"/>
<path d="M271.954 294.554L372.884 273.081C374.873 272.642 376.336 270.943 376.365 268.951L377.506 202.775C377.564 200.08 374.99 198.059 372.269 198.644L271.34 220.146C269.35 220.556 267.888 222.285 267.858 224.248L266.717 290.423C266.659 293.148 269.204 295.14 271.954 294.554Z" fill="#F9F9F9"/>
<path fill-rule="evenodd" clip-rule="evenodd" d="M270.988 295.11C271.339 295.11 271.69 295.071 272.041 294.993L372.971 273.491C375.194 273.022 376.745 271.177 376.803 268.95L377.944 202.775C377.974 201.398 377.359 200.08 376.277 199.201C375.136 198.263 373.644 197.912 372.181 198.205L271.252 219.707C269.028 220.175 267.448 222.05 267.419 224.247L266.278 290.423C266.249 291.8 266.863 293.118 267.946 294.026C268.794 294.729 269.877 295.11 270.988 295.11ZM373.234 198.996C374.141 198.996 375.019 199.289 375.721 199.875C376.599 200.607 377.096 201.662 377.067 202.775L375.926 268.95C375.896 270.737 374.609 272.261 372.795 272.642L271.866 294.144C270.637 294.407 269.438 294.114 268.502 293.323C267.624 292.62 267.127 291.566 267.156 290.452L268.297 224.277C268.326 222.46 269.613 220.966 271.427 220.556L372.357 199.084C372.649 199.006 372.942 198.976 373.234 198.996Z" fill="#292929"/>
<path d="M277.279 295.901L377.888 274.324C379.871 273.913 381.3 272.149 381.329 270.091L382 201.42C382.029 198.627 379.463 196.511 376.721 197.099L276.112 218.646C274.129 219.087 272.7 220.851 272.671 222.909L272 291.58C271.971 294.373 274.537 296.489 277.279 295.901Z" fill="#292929"/>
<path d="M326.34 245.632C326.457 248.796 328.27 251.315 330.376 251.228C332.482 251.14 334.121 248.503 333.974 245.339C333.857 242.176 332.044 239.656 329.938 239.744C327.831 239.832 326.223 242.469 326.34 245.632Z" fill="#F9F9F9"/>
<path d="M119.096 230.956L149.053 363.102L219.733 343.006L215.462 320.948L226.842 337.939L253.113 302.317L225.701 227.118C221.313 211.036 214.526 164.604 214.526 164.604L173.54 161.851C173.54 161.851 173.394 169.965 163.798 172.221C158.532 173.451 149.697 174.594 138.961 168.998L99.0861 198.527C99.0861 198.527 124.684 205.235 119.096 230.956Z" fill="#F9F9F9"/>
<path d="M183.926 223.252C183.955 224.248 184.804 225.009 185.798 224.951C186.793 224.922 187.553 224.072 187.495 223.076C187.466 222.08 186.617 221.318 185.623 221.377C184.628 221.406 183.868 222.256 183.926 223.252Z" fill="#0094F5"/>
<path d="M190.626 250.525C190.684 251.521 191.503 252.282 192.498 252.224C193.492 252.194 194.282 251.345 194.224 250.349C194.165 249.353 193.346 248.591 192.351 248.62C191.357 248.679 190.596 249.529 190.626 250.525Z" fill="#0094F5"/>
<path d="M198.729 276.831C198.759 277.827 199.607 278.589 200.601 278.53C201.596 278.501 202.357 277.651 202.327 276.655C202.269 275.659 201.421 274.898 200.426 274.927C199.431 274.985 198.671 275.835 198.729 276.831Z" fill="#0094F5"/>
<path d="M175.998 198.029C176.056 198.996 176.875 199.787 177.87 199.728C178.864 199.699 179.654 198.849 179.596 197.853C179.566 196.857 178.718 196.096 177.723 196.125C176.729 196.184 175.968 197.033 175.998 198.029Z" fill="#0094F5"/>
<path d="M226.843 338.378C226.96 338.378 227.106 338.32 227.194 338.202L253.465 302.581C253.553 302.463 253.582 302.317 253.523 302.17L220.143 208.458C220.056 208.224 219.792 208.107 219.558 208.194C219.354 208.282 219.236 208.517 219.295 208.751L252.616 302.258L226.843 337.177L215.843 320.743C215.316 319.776 193.141 279.995 187.934 251.609C182.697 222.9 164.501 172.895 164.325 172.397C164.237 172.162 164.003 172.045 163.769 172.133C163.535 172.192 163.418 172.455 163.506 172.69C163.681 173.188 181.849 223.134 187.085 251.755C192.322 280.493 214.848 320.772 215.082 321.182C215.082 321.182 215.092 321.192 215.112 321.212L226.462 338.202C226.55 338.32 226.667 338.378 226.814 338.378C226.814 338.378 226.823 338.378 226.843 338.378Z" fill="#292929"/>
<path d="M158.357 179.34C160.844 179.34 163.36 179.047 165.788 178.344C179.187 174.33 180.035 162.407 180.035 162.29C180.065 162.056 179.86 161.851 179.626 161.822C179.392 161.822 179.187 161.997 179.158 162.232C179.158 162.349 178.338 173.656 165.525 177.494C152.068 181.507 135.246 171.957 135.07 171.84C134.866 171.723 134.602 171.811 134.485 172.016C134.368 172.221 134.427 172.485 134.632 172.602C134.778 172.69 146.48 179.34 158.357 179.34Z" fill="#292929"/>
<path d="M149.054 363.542C149.093 363.542 149.132 363.542 149.171 363.542L219.851 343.417C220.055 343.358 220.202 343.153 220.143 342.919L215.901 320.89C215.843 320.626 215.638 320.479 215.375 320.538C215.141 320.567 214.994 320.802 215.024 321.036L219.207 342.685L149.376 362.575L134.309 296.048C134.251 295.814 134.017 295.667 133.783 295.726C133.549 295.784 133.373 296.019 133.432 296.253L148.615 363.22C148.644 363.337 148.703 363.425 148.82 363.483C148.878 363.523 148.956 363.542 149.054 363.542Z" fill="#292929"/>
<path d="M93.4104 225.947L116.697 309.904C120.413 322.09 133.109 329.092 145.397 325.752C158.21 322.237 158.298 309.757 154.378 297.044L129.511 206.29C125.971 194.719 120.383 193.957 108.564 196.389C95.0195 199.201 89.3732 212.706 93.4104 225.947Z" fill="#F0EDEA"/>
<path d="M244.776 296.165C244.776 296.165 269.906 273.286 271.778 272.407C274.411 271.177 286.142 276.186 287.81 275.22C289.038 274.458 289.916 273.813 289.858 272.847C289.77 271.558 289.068 270.386 287.985 269.712C283.041 266.519 273.592 258.844 267.478 263.062C260.573 267.779 237.082 282.045 237.082 282.045L244.776 296.165Z" fill="#F9F9F9"/>
<path d="M242.786 304.397C242.786 304.397 267.477 279.819 269.35 278.969C271.749 277.827 277.073 278.208 283.919 280.405C286.113 281.108 288.131 281.372 289.038 279.907C289.74 278.764 289.565 276.45 285.937 274.312C282.807 272.027 272.392 266.549 265.488 271.294C258.584 276.04 237.14 291.683 237.14 291.683L242.786 304.397Z" fill="#F9F9F9"/>
<path d="M238.428 304.543C238.428 304.543 265.43 283.803 267.273 282.953C269.906 281.694 282.661 286.263 284.329 285.297C286.025 284.74 287.839 282.397 283.48 280.17C280.409 278.295 266.922 272.261 260.018 277.007C253.114 281.752 231.699 297.395 231.699 297.395L238.428 304.543Z" fill="#F9F9F9"/>
<path d="M254.635 304.66C261.539 300.442 266.395 292.035 266.922 291.742C270.696 289.632 278.624 290.013 280.935 289.574C282.31 289.281 284.358 289.369 283.86 286.264C283.129 283.305 266.132 280.405 259.637 284.77C253.172 289.134 233.044 303.43 233.044 303.43C233.044 303.43 246.56 309.611 254.635 304.66Z" fill="#F9F9F9"/>
<path d="M287.371 275.776C287.517 275.776 287.663 275.688 287.751 275.571C287.868 275.366 287.809 275.073 287.605 274.956C287.166 274.663 276.459 267.955 273.562 267.574C270.169 267.105 260.749 272.173 260.368 272.378C260.134 272.495 260.076 272.759 260.193 272.993C260.31 273.198 260.573 273.286 260.778 273.169C260.866 273.11 270.315 268.013 273.445 268.423C275.61 268.716 283.363 273.316 287.137 275.688C287.215 275.747 287.293 275.776 287.371 275.776Z" fill="#292929"/>
<path d="M283.919 280.844C284.095 280.844 284.241 280.756 284.329 280.581C284.417 280.346 284.3 280.083 284.095 279.995C283.656 279.819 273.358 275.513 270.521 275.132C267.098 274.663 260.574 278.852 260.281 279.028C260.077 279.145 260.018 279.438 260.164 279.614C260.281 279.819 260.574 279.877 260.779 279.76C260.837 279.731 267.303 275.571 270.404 276.011C273.124 276.362 283.627 280.756 283.744 280.815C283.802 280.834 283.861 280.844 283.919 280.844Z" fill="#292929"/>
<path d="M258.819 287.201C258.916 287.201 259.004 287.172 259.082 287.113C259.14 287.055 265.079 282.866 268.18 283.276C270.959 283.657 283.363 286.147 283.48 286.176C283.714 286.234 283.949 286.088 284.007 285.824C284.036 285.59 283.89 285.356 283.656 285.326C283.129 285.209 271.106 282.778 268.297 282.426C264.874 281.958 258.819 286.205 258.584 286.381C258.38 286.527 258.321 286.82 258.467 286.996C258.555 287.113 258.702 287.201 258.819 287.201Z" fill="#292929"/>
<path d="M139.429 326.865C139.429 326.865 247.818 306.506 249.573 306.066C251.329 305.656 241.119 279.526 241.119 279.526L147.123 286.674L139.429 326.865Z" fill="#F9F9F9"/>
<path d="M234.917 283.246C234.995 283.246 235.073 283.227 235.151 283.188C235.415 283.041 262.124 267.076 266.249 264.381C270.14 261.861 272.217 262.272 272.247 262.272C272.481 262.33 272.715 262.184 272.773 261.949C272.832 261.715 272.685 261.481 272.451 261.422C272.334 261.393 270.053 260.895 265.781 263.648C261.656 266.314 234.947 282.28 234.683 282.426C234.479 282.573 234.42 282.836 234.537 283.041C234.625 283.188 234.771 283.246 234.917 283.246Z" fill="#292929"/>
<path d="M246.443 307.326C248.344 307.326 250.275 306.916 252.967 305.979C258.584 304.045 266.921 292.503 267.272 292.005C267.419 291.8 267.36 291.537 267.155 291.39C266.98 291.244 266.687 291.302 266.541 291.478C266.482 291.595 258.028 303.284 252.674 305.129C247.408 306.945 245.273 306.682 240.972 305.51C240.738 305.422 240.475 305.569 240.416 305.803C240.358 306.037 240.504 306.272 240.738 306.36C242.991 306.975 244.717 307.326 246.443 307.326Z" fill="#292929"/>
<path d="M162.335 295.374L133.665 205.587C129.862 191.936 121.963 190.12 108.301 193.87C94.2591 197.736 86.214 212.501 90.6022 226.416L115.44 309.553C119.418 322.149 132.671 329.297 145.397 325.752C158.474 322.091 166.08 308.439 162.335 295.374Z" fill="#F9F9F9"/>
<path d="M142.121 326.367L233.074 310.051L228.247 279.526L153.384 284.77L142.121 326.367Z" fill="#F9F9F9"/>
<path d="M233.074 310.05L243.928 307.736L238.252 278.969L228.247 279.526L233.074 310.05Z" fill="#F9F9F9"/>
<path d="M233.015 310.109C233.035 310.109 233.054 310.109 233.074 310.109C233.308 310.08 233.483 309.845 233.454 309.611L228.686 279.467C228.657 279.203 228.423 279.057 228.189 279.086C227.954 279.116 227.779 279.35 227.808 279.584L232.576 309.757C232.606 309.962 232.81 310.109 233.015 310.109Z" fill="#292929"/>
<path d="M235.824 305.569C235.824 306.565 236.643 307.356 237.638 307.356C238.632 307.356 239.422 306.565 239.422 305.569C239.422 304.573 238.632 303.752 237.638 303.752C236.643 303.752 235.824 304.573 235.824 305.569Z" fill="#0094F5"/>
<path d="M136.854 327.481C137.732 327.481 138.61 327.422 139.487 327.305C162.16 324.376 212.683 314.357 234.244 310.08C239.715 308.996 243.635 308.205 243.957 308.176C244.074 308.176 244.181 308.117 244.279 308C244.337 307.912 244.366 307.766 244.337 307.649L238.691 278.911C238.632 278.677 238.457 278.53 238.223 278.559C236.321 278.647 163.418 284.125 160.317 284.33C160.239 284.35 160.161 284.389 160.083 284.447L149.58 293.294C149.405 293.441 149.376 293.734 149.522 293.91C149.697 294.085 149.961 294.115 150.136 293.968L160.522 285.209C164.12 284.946 231.933 279.848 237.901 279.438L243.401 307.385C242.436 307.561 239.949 308.029 234.098 309.201C212.508 313.478 162.014 323.497 139.37 326.455C127.171 328.037 117.312 317.872 114.826 307.121L90.8365 224.629C88.2328 215.723 91.5094 205.001 98.4428 199.67L139.224 169.35C139.429 169.204 139.458 168.94 139.312 168.735C139.166 168.559 138.902 168.501 138.698 168.647L97.9162 198.967C90.7195 204.503 87.2966 215.635 89.9881 224.863L113.977 307.356C116.376 317.667 125.387 327.481 136.854 327.481Z" fill="#292929"/>
<path d="M160.375 285.209C160.414 285.209 160.453 285.209 160.492 285.209C160.726 285.121 160.843 284.857 160.785 284.652L141.477 228.495C141.389 228.29 141.155 228.144 140.921 228.232C140.687 228.319 140.57 228.554 140.628 228.788L159.937 284.916C159.995 285.121 160.171 285.209 160.375 285.209Z" fill="#292929"/>
<path d="M261.335 241.824C261.374 241.824 261.422 241.814 261.481 241.795C261.715 241.707 261.832 241.473 261.744 241.238L238.516 179.603C234.918 170.873 226.17 164.722 216.75 164.282L173.57 161.411C173.336 161.411 173.131 161.587 173.102 161.822C173.073 162.114 172.341 169.292 163.769 172.104C155.081 174.975 139.283 168.676 139.137 168.588C138.903 168.501 138.669 168.618 138.552 168.852C138.464 169.057 138.581 169.321 138.815 169.409C139.459 169.672 155.051 175.912 164.062 172.953C171.961 170.346 173.599 164.019 173.921 162.32L216.692 165.161C225.79 165.571 234.215 171.518 237.697 179.925L260.925 241.531C260.984 241.707 261.159 241.824 261.335 241.824Z" fill="#292929"/>
</svg>
