<svg width="320" height="64" viewBox="0 0 320 64" fill="none" xmlns="http://www.w3.org/2000/svg">
<path d="M1.37939 36.0427H318.621" stroke="#6DBBD1" stroke-width="2" stroke-linecap="round"/>
<path d="M7.27592 58.5381H9.92844V47.6139H7.27592V58.5381ZM6.90015 43.9042C6.90015 44.769 7.60749 45.5429 8.58009 45.5429C9.55268 45.5429 10.3042 44.8373 10.3042 43.9042C10.3042 42.971 9.55268 42.2656 8.58009 42.2656C7.60749 42.2656 6.90015 43.0393 6.90015 43.9042Z" fill="white"/>
<path d="M13.1921 58.5376H15.8438V52.5748C15.8438 51.1182 16.5288 49.7982 18.2745 49.7982C20.1306 49.7982 20.219 51.801 20.219 53.0072V58.5376H22.8707V51.6417C22.8707 49.4114 21.8542 47.3403 19.0037 47.3403C17.236 47.3403 16.2415 48.2735 15.7554 49.3659H15.7113V47.6134H13.1921V58.5376Z" fill="white"/>
<path d="M26.1023 58.5376H28.7539V52.5748C28.7539 51.1182 29.439 49.7982 31.1846 49.7982C33.0408 49.7982 33.1292 51.801 33.1292 53.0072V58.5376H35.7808V51.6417C35.7808 49.4114 34.7644 47.3403 31.9139 47.3403C30.146 47.3403 29.1517 48.2735 28.6655 49.3659H28.6213V47.6134H26.1023V58.5376Z" fill="white"/>
<path d="M39.9618 49.935V54.9419C39.9618 57.5137 40.6247 58.8109 43.431 58.8109C44.0498 58.8109 44.9779 58.7199 45.5303 58.4469V56.1481C45.1989 56.3986 44.558 56.4896 44.0939 56.4896C42.9227 56.4896 42.6135 55.8068 42.6135 54.7144V49.935H45.5303V47.6136H42.6135V44.4502H39.9618V47.6136H37.7742V49.935H39.9618Z" fill="white"/>
<path d="M58.0303 54.0313V53.2804C58.0303 49.4796 56.0194 47.3403 53.0585 47.3403C49.8543 47.3403 47.291 49.6389 47.291 53.0755C47.291 56.5121 49.8543 58.8107 53.0585 58.8107C54.7378 58.8107 56.3067 58.1962 57.5441 56.6259L55.6438 55.1465C54.9809 55.9886 54.1191 56.6259 52.7932 56.6259C51.3128 56.6259 50.1196 55.6473 49.9427 54.0313H58.0303ZM49.9427 51.983C50.1416 50.4128 51.1139 49.3886 52.6827 49.3886C54.3401 49.3886 55.3565 50.39 55.3786 51.983H49.9427Z" fill="white"/>
<path d="M60.7747 58.5379H63.4272V41.3323H60.7747V58.5379Z" fill="white"/>
<path d="M66.7361 58.5379H69.3887V41.3323H66.7361V58.5379Z" fill="white"/>
<path d="M72.6971 58.5381H75.3496V47.6139H72.6971V58.5381ZM72.3213 43.9042C72.3213 44.769 73.0287 45.5429 74.0013 45.5429C74.9739 45.5429 75.7254 44.8373 75.7254 43.9042C75.7254 42.971 74.9739 42.2656 74.0013 42.2656C73.0287 42.2656 72.3213 43.0393 72.3213 43.9042Z" fill="white"/>
<path d="M87.0108 47.6134V49.2521H86.9665C86.1932 47.932 84.801 47.3403 83.3206 47.3403C80.0501 47.3403 78.0835 49.8437 78.0835 53.0754C78.0835 56.1706 80.1827 58.6742 83.3647 58.6742C84.6905 58.6742 86.0606 58.1507 86.834 57.081H86.8781V57.8776C86.8781 60.0396 86.0827 61.5418 83.5194 61.5418C82.0389 61.5418 80.934 60.9728 79.8734 59.9714L78.2824 62.2017C79.785 63.5673 81.5748 63.9997 83.5416 63.9997C87.6737 63.9997 89.5298 61.4963 89.5298 57.559V47.6134H87.0108ZM83.873 49.7982C85.7954 49.7982 87.0108 51.1182 87.0108 53.0072C87.0108 54.8279 85.8176 56.2161 83.8508 56.2161C82.061 56.2161 80.7352 54.7824 80.7352 53.0527C80.7352 51.1182 82.0167 49.7982 83.873 49.7982Z" fill="white"/>
<path d="M102.962 54.0313V53.2804C102.962 49.4796 100.952 47.3403 97.9906 47.3403C94.7865 47.3403 92.2231 49.6389 92.2231 53.0755C92.2231 56.5121 94.7865 58.8107 97.9906 58.8107C99.6699 58.8107 101.239 58.1962 102.476 56.6259L100.576 55.1465C99.913 55.9886 99.0512 56.6259 97.7254 56.6259C96.2448 56.6259 95.0516 55.6473 94.8749 54.0313H102.962ZM94.8749 51.983C95.0738 50.4128 96.046 49.3886 97.6149 49.3886C99.2723 49.3886 100.289 50.39 100.311 51.983H94.8749Z" fill="white"/>
<path d="M105.663 58.5376H108.315V52.5748C108.315 51.1182 109 49.7982 110.746 49.7982C112.602 49.7982 112.69 51.801 112.69 53.0072V58.5376H115.342V51.6417C115.342 49.4114 114.325 47.3403 111.475 47.3403C109.707 47.3403 108.713 48.2735 108.227 49.3659H108.182V47.6134H105.663V58.5376Z" fill="white"/>
<path d="M119.523 49.935V54.9419C119.523 57.5137 120.186 58.8109 122.992 58.8109C123.611 58.8109 124.539 58.7199 125.091 58.4469V56.1481C124.76 56.3986 124.119 56.4896 123.655 56.4896C122.484 56.4896 122.175 55.8068 122.175 54.7144V49.935H125.091V47.6136H122.175V44.4502H119.523V47.6136H117.335V49.935H119.523Z" fill="white"/>
<path d="M136.464 49.0016C135.448 47.841 133.967 47.3403 132.619 47.3403C129.415 47.3403 126.852 49.6389 126.852 53.0755C126.852 56.5121 129.415 58.8107 132.619 58.8107C133.547 58.8107 135.359 58.4011 136.442 57.2859L134.674 55.3287C134.188 55.9886 133.437 56.3528 132.619 56.3528C130.675 56.3528 129.504 54.7824 129.504 53.0755C129.504 51.3686 130.675 49.7982 132.619 49.7982C133.326 49.7982 134.011 50.2307 134.63 50.8906L136.464 49.0016Z" fill="white"/>
<path d="M138.263 58.5376H140.914V52.6886C140.914 52.0968 141.269 49.9348 143.766 49.9348C144.185 49.9348 144.606 50.0258 145.047 50.1396V47.4996C144.738 47.4086 144.429 47.3403 144.097 47.3403C142.705 47.3403 141.534 48.0913 140.959 49.3431H140.914V47.6134H138.263V58.5376Z" fill="white"/>
<path d="M147.35 58.5376H150.003V52.5748C150.003 51.1182 150.687 49.7982 152.433 49.7982C153.714 49.7982 154.246 50.6858 154.246 52.0286V58.5376H156.897V52.6203C156.897 51.2092 157.516 49.7982 159.172 49.7982C160.742 49.7982 161.139 50.9817 161.139 52.3473V58.5376H163.792V52.0286C163.792 49.4114 162.797 47.3403 159.968 47.3403C158.378 47.3403 157.251 47.9775 156.477 49.3659C155.924 48.0002 154.797 47.3403 153.163 47.3403C151.394 47.3403 150.378 48.2962 149.914 49.3204H149.87V47.6134H147.35V58.5376Z" fill="white"/>
<path d="M166.909 56.9451C166.909 57.9238 167.749 58.6749 168.678 58.6749C169.651 58.6749 170.447 57.8783 170.447 56.8996C170.447 55.921 169.629 55.1699 168.678 55.1699C167.705 55.1699 166.909 55.9665 166.909 56.9451Z" fill="white"/>
<path d="M182.75 49.0016C181.734 47.841 180.254 47.3403 178.906 47.3403C175.702 47.3403 173.139 49.6389 173.139 53.0755C173.139 56.5121 175.702 58.8107 178.906 58.8107C179.835 58.8107 181.646 58.4011 182.728 57.2859L180.961 55.3287C180.475 55.9886 179.724 56.3528 178.906 56.3528C176.961 56.3528 175.79 54.7824 175.79 53.0755C175.79 51.3686 176.961 49.7982 178.906 49.7982C179.612 49.7982 180.298 50.2307 180.917 50.8906L182.75 49.0016Z" fill="white"/>
<path d="M184.019 53.0755C184.019 56.5121 186.583 58.8107 189.787 58.8107C192.991 58.8107 195.554 56.5121 195.554 53.0755C195.554 49.6389 192.991 47.3403 189.787 47.3403C186.583 47.3403 184.019 49.6389 184.019 53.0755ZM186.671 53.0755C186.671 51.3686 187.842 49.7982 189.787 49.7982C191.731 49.7982 192.903 51.3686 192.903 53.0755C192.903 54.7824 191.731 56.3528 189.787 56.3528C187.842 56.3528 186.671 54.7824 186.671 53.0755Z" fill="white"/>
<path d="M198.147 58.5376H200.798V52.5748C200.798 51.1182 201.484 49.7982 203.23 49.7982C204.512 49.7982 205.041 50.6858 205.041 52.0286V58.5376H207.694V52.6203C207.694 51.2092 208.312 49.7982 209.97 49.7982C211.538 49.7982 211.936 50.9817 211.936 52.3473V58.5376H214.587V52.0286C214.587 49.4114 213.593 47.3403 210.765 47.3403C209.174 47.3403 208.047 47.9775 207.273 49.3659C206.721 48.0002 205.594 47.3403 203.958 47.3403C202.192 47.3403 201.175 48.2962 200.71 49.3204H200.666V47.6134H198.147V58.5376Z" fill="white"/>
<path d="M7.13745 0.425293H21.3741V2.22431H18.801C18.2501 2.22431 17.8494 2.34038 17.599 2.57252C17.3486 2.79175 17.2234 3.1206 17.2234 3.55907V25.7083C17.2234 26.2241 17.3548 26.5916 17.6178 26.8109C17.9559 27.0947 18.4442 27.2365 19.0828 27.2365H21.3741V29.0354H7.13745V27.2365H9.31617C10.0674 27.2365 10.5933 27.1075 10.8939 26.8496C11.2069 26.5916 11.3634 26.2112 11.3634 25.7083V3.81055C11.3634 3.26891 11.2194 2.86912 10.9314 2.6112C10.6559 2.35328 10.2177 2.22431 9.61668 2.22431H7.13745V0.425293Z" fill="white"/>
<path d="M26.1524 0.425293H34.7733L49.8176 20.0405V6.71219C49.8176 5.39678 49.4546 4.34574 48.7283 3.55907C48.002 2.75951 46.9691 2.31458 45.6292 2.22431V0.425293H55.7716V2.22431C54.3567 2.37907 53.3425 2.81754 52.7288 3.53973C52.1153 4.24902 51.8085 5.30651 51.8085 6.71219V29.0354H49.6487L32.5194 6.44137V22.0909C32.5194 23.8834 32.9139 25.1925 33.7027 26.0178C34.5041 26.8303 35.4932 27.2365 36.6703 27.2365H37.1398V29.0354H25.927V27.2365H26.6971C27.7989 27.2365 28.7255 26.7851 29.4768 25.8824C30.2281 24.9797 30.6037 23.819 30.6037 22.4003V3.90727C29.7648 2.78529 28.6942 2.22431 27.392 2.22431H26.1524V0.425293Z" fill="white"/>
<path d="M60.118 0.425293H68.7389L83.7833 20.0405V6.71219C83.7833 5.39678 83.4202 4.34574 82.694 3.55907C81.9678 2.75951 80.9347 2.31458 79.5949 2.22431V0.425293H89.7371V2.22431C88.3222 2.37907 87.308 2.81754 86.6945 3.53973C86.081 4.24902 85.7742 5.30651 85.7742 6.71219V29.0354H83.6142L66.4851 6.44137V22.0909C66.4851 23.8834 66.8795 25.1925 67.6683 26.0178C68.4697 26.8303 69.4589 27.2365 70.6359 27.2365H71.1054V29.0354H59.8926V27.2365H60.6626C61.7646 27.2365 62.6912 26.7851 63.4424 25.8824C64.1937 24.9797 64.5694 23.819 64.5694 22.4003V3.90727C63.7304 2.78529 62.6599 2.22431 61.3577 2.22431H60.118V0.425293Z" fill="white"/>
<path d="M120.21 3.48169H121.9V10.9292H127.704V13.0184H121.9V24.5282C121.9 25.2891 122.088 25.8825 122.464 26.308C122.84 26.7206 123.334 26.9269 123.948 26.9269C125.701 26.9269 126.627 25.244 126.727 21.878H128.418C128.38 23.6708 128.105 25.115 127.591 26.2113C127.078 27.2946 126.339 28.1328 125.375 28.7261C124.423 29.3193 123.347 29.6158 122.145 29.6158C121.093 29.6158 120.179 29.3966 119.402 28.9582C118.639 28.5197 118.025 27.8685 117.562 27.0043C117.111 26.1274 116.886 25.1796 116.886 24.1607V13.0184H113.768V11.2388C115.671 10.9808 117.155 10.2264 118.219 8.97548C119.283 7.72455 119.947 5.89328 120.21 3.48169Z" fill="white"/>
<path d="M151.283 20.0989H138.943C138.981 22.6394 139.474 24.5159 140.426 25.7281C141.39 26.9274 142.625 27.5272 144.127 27.5272C145.204 27.5272 146.223 27.2177 147.187 26.5986C148.152 25.9797 149.142 24.8577 150.156 23.2328L151.527 24.1032C150.462 26.0377 149.241 27.4239 147.865 28.2622C146.499 29.0876 144.827 29.5002 142.849 29.5002C139.969 29.5002 137.641 28.5975 135.863 26.792C134.085 24.9865 133.196 22.6717 133.196 19.8475C133.196 17.0232 134.091 14.6632 135.881 12.7674C137.672 10.8717 139.869 9.92383 142.474 9.92383C144.277 9.92383 145.823 10.3043 147.113 11.0651C148.415 11.826 149.423 12.9415 150.136 14.4117C150.863 15.8689 151.245 17.7648 151.283 20.0989ZM138.943 18.358H144.822C145.372 18.358 145.767 18.216 146.005 17.9324C146.243 17.6487 146.361 17.1329 146.361 16.3848C146.361 14.8889 146.03 13.7346 145.367 12.9222C144.702 12.0968 143.858 11.6842 142.83 11.6842C141.616 11.6842 140.683 12.2387 140.032 13.3478C139.393 14.4568 139.03 16.1269 138.943 18.358Z" fill="white"/>
<path d="M156.625 0.425574L164.851 0V25.7472C164.851 26.2116 164.995 26.5791 165.283 26.8498C165.571 27.1078 165.984 27.2368 166.523 27.2368H167.631V29.0358H157.057V27.2368H158.258C158.81 27.2368 159.217 27.0885 159.479 26.7918C159.755 26.4823 159.893 26.0181 159.893 25.399V4.25574C159.893 3.59804 159.718 3.09508 159.367 2.74689C159.017 2.38579 158.541 2.20526 157.94 2.20526H156.625V0.425574Z" fill="white"/>
<path d="M183.877 0.425574L192.103 0V25.7472C192.103 26.2116 192.248 26.5791 192.535 26.8498C192.823 27.1078 193.237 27.2368 193.775 27.2368H194.884V29.0358H184.309V27.2368H185.512C186.062 27.2368 186.469 27.0885 186.732 26.7918C187.008 26.4823 187.145 26.0181 187.145 25.399V4.25574C187.145 3.59804 186.97 3.09508 186.619 2.74689C186.269 2.38579 185.793 2.20526 185.192 2.20526H183.877V0.425574Z" fill="white"/>
<path d="M203.034 0.483643C203.874 0.483643 204.594 0.793152 205.194 1.41217C205.796 2.0183 206.096 2.75982 206.096 3.63676C206.096 4.5137 205.796 5.26169 205.194 5.8807C204.594 6.48682 203.874 6.78988 203.034 6.78988C202.183 6.78988 201.456 6.48038 200.856 5.86136C200.255 5.24233 199.954 4.50081 199.954 3.63676C199.954 2.75982 200.255 2.0183 200.856 1.41217C201.456 0.793152 202.183 0.483643 203.034 0.483643ZM198.208 10.9296L206.02 10.562V25.9408C206.02 26.3534 206.146 26.6758 206.397 26.9079C206.659 27.1272 207.054 27.2369 207.58 27.2369H208.763V29.0358H198.208V27.2369H199.372C199.998 27.2369 200.437 27.0885 200.687 26.7919C200.95 26.4953 201.081 25.9795 201.081 25.2443V14.7597C201.081 14.102 200.894 13.5926 200.518 13.2315C200.154 12.8704 199.648 12.6899 198.997 12.6899H198.208V10.9296Z" fill="white"/>
<path d="M241.404 10.9293C242.906 9.08517 244.397 8.16309 245.874 8.16309C246.626 8.16309 247.226 8.38878 247.677 8.84015C248.128 9.29151 248.353 9.87184 248.353 10.5811C248.353 11.213 248.178 11.7224 247.828 12.1093C247.49 12.4833 247.058 12.6703 246.531 12.6703C245.793 12.6703 245.261 12.2641 244.935 11.4516C244.735 10.9616 244.497 10.7165 244.222 10.7165C243.87 10.7165 243.394 11.097 242.794 11.8578C244.146 13.2635 244.822 14.7466 244.822 16.307C244.822 17.5193 244.503 18.6154 243.865 19.5956C243.226 20.5757 242.255 21.3559 240.953 21.9362C239.663 22.5166 238.048 22.8067 236.108 22.8067L234.098 22.768C232.608 22.768 231.6 22.9228 231.074 23.2323C230.535 23.5419 230.266 23.9415 230.266 24.4316C230.266 24.8573 230.436 25.1732 230.774 25.3795C231.212 25.6633 231.913 25.8051 232.877 25.8051L234.605 25.747C236.47 25.6439 237.841 25.5923 238.719 25.5923C241.636 25.5923 243.665 26.0178 244.804 26.869C245.943 27.7202 246.513 28.9002 246.513 30.4091C246.513 32.2144 245.855 33.6653 244.541 34.7615C242.938 36.1027 240.139 36.7732 236.145 36.7732C232.739 36.7732 230.348 36.3671 228.971 35.5547C227.593 34.7422 226.905 33.7879 226.905 32.6916C226.905 32.0082 227.199 31.4085 227.788 30.8926C228.375 30.3768 229.622 29.8932 231.525 29.4418C230.285 29.1838 229.353 28.7454 228.727 28.1264C228.101 27.5075 227.788 26.7079 227.788 25.7277C227.788 24.8378 228.019 24.0835 228.483 23.4644C228.959 22.8454 229.803 22.2973 231.018 21.8201C229.866 21.1753 228.996 20.408 228.407 19.5181C227.832 18.6284 227.543 17.616 227.543 16.4811C227.543 15.256 227.862 14.1534 228.501 13.1733C229.139 12.1803 230.123 11.3936 231.45 10.8133C232.777 10.22 234.392 9.92343 236.295 9.92343C237.197 9.92343 238.073 10.0073 238.925 10.1749C239.777 10.3426 240.603 10.594 241.404 10.9293ZM236.183 11.6257C235.319 11.6257 234.574 12.0448 233.948 12.8831C233.334 13.7085 233.028 14.9013 233.028 16.4618C233.028 17.9706 233.334 19.1249 233.948 19.9245C234.561 20.724 235.313 21.1238 236.201 21.1238C237.079 21.1238 237.829 20.7111 238.455 19.8858C239.081 19.0603 239.394 17.8998 239.394 16.4037C239.394 14.8949 239.081 13.7214 238.455 12.8831C237.829 12.0448 237.072 11.6257 236.183 11.6257ZM243.545 32.1887C243.545 31.4278 243.132 30.8733 242.306 30.5251C241.742 30.2801 240.49 30.1576 238.549 30.1576C235.043 30.1576 232.783 30.4025 231.77 30.8926C230.754 31.3827 230.248 31.9953 230.248 32.7303C230.248 33.4267 230.643 34.007 231.43 34.4714C232.219 34.9485 233.716 35.187 235.92 35.187C238.788 35.187 240.854 34.8453 242.119 34.1619C243.069 33.6331 243.545 32.9753 243.545 32.1887Z" fill="white"/>
<path d="M270.542 20.0989H258.203C258.24 22.6394 258.735 24.5159 259.687 25.7281C260.651 26.9274 261.884 27.5272 263.386 27.5272C264.463 27.5272 265.484 27.2176 266.448 26.5986C267.412 25.9795 268.401 24.8577 269.415 23.2327L270.786 24.1032C269.723 26.0376 268.502 27.4239 267.124 28.2622C265.76 29.0875 264.088 29.5002 262.109 29.5002C259.229 29.5002 256.901 28.5976 255.123 26.7921C253.345 24.9865 252.455 22.6717 252.455 19.8475C252.455 17.0232 253.35 14.6632 255.141 12.7674C256.932 10.8717 259.13 9.92383 261.734 9.92383C263.536 9.92383 265.083 10.3043 266.372 11.0651C267.676 11.826 268.683 12.9415 269.397 14.4117C270.123 15.869 270.505 17.7648 270.542 20.0989ZM258.203 18.358H264.081C264.633 18.358 265.028 18.2161 265.265 17.9323C265.502 17.6486 265.622 17.1327 265.622 16.3848C265.622 14.8889 265.29 13.7346 264.626 12.9222C263.963 12.0968 263.117 11.6842 262.091 11.6842C260.876 11.6842 259.943 12.2387 259.292 13.3478C258.654 14.4568 258.291 16.1269 258.203 18.358Z" fill="white"/>
<path d="M299.812 27.237V29.0362H289.238V27.237H290.346C290.935 27.237 291.372 27.0823 291.66 26.7728C291.949 26.4634 292.092 26.0119 292.092 25.4187V17.5649C292.092 16.2238 291.793 15.1985 291.191 14.4892C290.602 13.767 289.826 13.4059 288.862 13.4059C287.547 13.4059 286.477 13.9153 285.651 14.9341C284.824 15.9401 284.411 17.4166 284.411 19.3639V25.4187C284.411 26.0119 284.556 26.4634 284.842 26.7728C285.143 27.0823 285.525 27.237 285.989 27.237H287.322V29.0362H276.353V27.237H277.78C278.332 27.237 278.744 27.0823 279.02 26.7728C279.309 26.4634 279.452 26.0119 279.452 25.4187V14.644C279.452 14.0249 279.245 13.5349 278.833 13.1738C278.431 12.7998 277.9 12.6128 277.236 12.6128H276.485V10.9298L283.809 10.5236C284.073 11.6327 284.273 12.9545 284.411 14.4892C285.437 13.0577 286.533 11.9873 287.698 11.278C288.862 10.5688 290.089 10.2141 291.379 10.2141C293.132 10.2141 294.516 10.8138 295.529 12.0131C296.532 13.2125 297.033 14.8825 297.033 17.0234V25.4187C297.033 26.0636 297.176 26.5278 297.464 26.8115C297.753 27.0953 298.209 27.237 298.836 27.237H299.812Z" fill="white"/>
<path d="M310.075 3.48169H311.766V10.9292H317.568V13.0184H311.766V24.5282C311.766 25.2891 311.953 25.8823 312.328 26.308C312.705 26.7206 313.199 26.927 313.813 26.927C315.566 26.927 316.493 25.244 316.592 21.8781H318.283C318.246 23.6706 317.97 25.115 317.457 26.2113C316.944 27.2945 316.204 28.1327 315.24 28.7259C314.288 29.3193 313.211 29.6158 312.01 29.6158C310.957 29.6158 310.044 29.3966 309.268 28.9582C308.504 28.5197 307.89 27.8683 307.426 27.0043C306.975 26.1274 306.751 25.1795 306.751 24.1607V13.0184H303.633V11.2388C305.537 10.9808 307.019 10.2264 308.084 8.97548C309.149 7.72453 309.813 5.89328 310.075 3.48169Z" fill="white"/>
<path d="M102.712 19.7636C105.65 19.7636 108.031 17.3106 108.031 14.2846C108.031 11.2587 105.65 8.80566 102.712 8.80566C99.7736 8.80566 97.3918 11.2587 97.3918 14.2846C97.3918 17.3106 99.7736 19.7636 102.712 19.7636Z" fill="#3AABCD"/>
<path d="M177.186 19.7636C180.124 19.7636 182.506 17.3106 182.506 14.2846C182.506 11.2587 180.124 8.80566 177.186 8.80566C174.248 8.80566 171.866 11.2587 171.866 14.2846C171.866 17.3106 174.248 19.7636 177.186 19.7636Z" fill="#3AABCD"/>
<path d="M217.29 19.7636C220.228 19.7636 222.609 17.3106 222.609 14.2846C222.609 11.2587 220.228 8.80566 217.29 8.80566C214.352 8.80566 211.97 11.2587 211.97 14.2846C211.97 17.3106 214.352 19.7636 217.29 19.7636Z" fill="#3AABCD"/>
</svg>
